<?xml version="1.0" encoding="UTF-8" standalone="no"?><svg xmlns="http://www.w3.org/2000/svg" xmlns:xlink="http://www.w3.org/1999/xlink" contentScriptType="application/ecmascript" contentStyleType="text/css" height="3345px" preserveAspectRatio="none" style="width:1260px;height:3345px;background:#FFFFFF;" version="1.1" viewBox="0 0 1260 3345" width="1260px" zoomAndPan="magnify"><defs><filter height="300%" id="f1mo7x6lnxbvtx" width="300%" x="-1" y="-1"><feGaussianBlur result="blurOut" stdDeviation="2.0"/><feColorMatrix in="blurOut" result="blurOut2" type="matrix" values="0 0 0 0 0 0 0 0 0 0 0 0 0 0 0 0 0 0 .4 0"/><feOffset dx="4.0" dy="4.0" in="blurOut2" result="blurOut3"/><feBlend in="SourceGraphic" in2="blurOut3" mode="normal"/></filter></defs><g><!--MD5=[62b0450016ec383eaab059f5cf5c9dfb]
cluster PyQt5--><polygon fill="#FFFFFF" filter="url(#f1mo7x6lnxbvtx)" points="16,351,62,351,69,373.4063,848,373.4063,848,1620,16,1620,16,351" style="stroke:#000000;stroke-width:1.5;"/><line style="stroke:#000000;stroke-width:1.5;" x1="16" x2="69" y1="373.4063" y2="373.4063"/><text fill="#000000" font-family="sans-serif" font-size="14" font-weight="bold" lengthAdjust="spacing" textLength="40" x="20" y="365.9883">PyQt5</text><!--MD5=[75ba9d0dce7ab1069108f3eded2a3efc]
cluster QtGui--><polygon fill="#FFFFFF" filter="url(#f1mo7x6lnxbvtx)" points="193,959,237,959,244,981.4063,290,981.4063,290,1125,193,1125,193,959" style="stroke:#000000;stroke-width:1.5;"/><line style="stroke:#000000;stroke-width:1.5;" x1="193" x2="244" y1="981.4063" y2="981.4063"/><text fill="#000000" font-family="sans-serif" font-size="14" font-weight="bold" lengthAdjust="spacing" textLength="38" x="197" y="973.9883">QtGui</text><!--MD5=[888d1391842888102e801eb0f276ad33]
cluster QtCore--><polygon fill="#FFFFFF" filter="url(#f1mo7x6lnxbvtx)" points="162.5,378,217.5,378,224.5,400.4063,840,400.4063,840,710,162.5,710,162.5,378" style="stroke:#000000;stroke-width:1.5;"/><line style="stroke:#000000;stroke-width:1.5;" x1="162.5" x2="224.5" y1="400.4063" y2="400.4063"/><text fill="#000000" font-family="sans-serif" font-size="14" font-weight="bold" lengthAdjust="spacing" textLength="49" x="166.5" y="392.9883">QtCore</text><!--MD5=[9528517310f52982a410ae161f6fc6d2]
cluster QtWidgets--><polygon fill="#FFFFFF" filter="url(#f1mo7x6lnxbvtx)" points="24,1133,102,1133,109,1155.4063,459,1155.4063,459,1612,24,1612,24,1133" style="stroke:#000000;stroke-width:1.5;"/><line style="stroke:#000000;stroke-width:1.5;" x1="24" x2="109" y1="1155.4063" y2="1155.4063"/><text fill="#000000" font-family="sans-serif" font-size="14" font-weight="bold" lengthAdjust="spacing" textLength="72" x="28" y="1147.9883">QtWidgets</text><!--MD5=[5ce62184b030e3ffe5e44fba02f9f823]
cluster PIL--><polygon fill="#FFFFFF" filter="url(#f1mo7x6lnxbvtx)" points="186.5,6,213.5,6,220.5,28.4063,847,28.4063,847,172,186.5,172,186.5,6" style="stroke:#000000;stroke-width:1.5;"/><line style="stroke:#000000;stroke-width:1.5;" x1="186.5" x2="220.5" y1="28.4063" y2="28.4063"/><text fill="#000000" font-family="sans-serif" font-size="14" font-weight="bold" lengthAdjust="spacing" textLength="21" x="190.5" y="20.9883">PIL</text><!--MD5=[16d025dde850bca9df54fb6533f05466]
class QMainWindow--><rect codeLine="19" fill="#FEFECE" filter="url(#f1mo7x6lnxbvtx)" height="48" id="QMainWindow" style="stroke:#A80036;stroke-width:1.5;" width="112" x="185.5" y="737"/><ellipse cx="200.5" cy="753" fill="#ADD1B2" rx="11" ry="11" style="stroke:#A80036;stroke-width:1.0;"/><path d="M200.5469,759.2031 C202.0469,759.2031 203.2813,758.6406 204.1875,757.5781 L202.8125,756.0625 C202.2656,756.6563 201.6094,757.0469 200.8125,757.0469 C199.1406,757.0469 197.9844,755.7188 197.9844,753.4375 C197.9844,751.2188 199.1406,749.875 200.7031,749.875 C201.5156,749.875 202.1094,750.1875 202.6406,750.6719 L204.0156,749.125 C203.2656,748.3906 202.1094,747.7188 200.7031,747.7188 C197.75,747.7188 195.4219,749.8594 195.4219,753.5313 C195.4219,757.25 197.7969,759.2031 200.5469,759.2031 Z " fill="#000000"/><text fill="#000000" font-family="sans-serif" font-size="12" lengthAdjust="spacing" textLength="80" x="214.5" y="757.1016">QMainWindow</text><line style="stroke:#A80036;stroke-width:1.5;" x1="186.5" x2="296.5" y1="769" y2="769"/><line style="stroke:#A80036;stroke-width:1.5;" x1="186.5" x2="296.5" y1="777" y2="777"/><!--MD5=[9b5c41bdbe8101847298f4a4599a2e33]
class QGraphicsDropShadowEffect--><rect codeLine="34" fill="#FEFECE" filter="url(#f1mo7x6lnxbvtx)" height="48" id="QGraphicsDropShadowEffect" style="stroke:#A80036;stroke-width:1.5;" width="189" x="147" y="820"/><ellipse cx="162" cy="836" fill="#ADD1B2" rx="11" ry="11" style="stroke:#A80036;stroke-width:1.0;"/><path d="M162.0469,842.2031 C163.5469,842.2031 164.7813,841.6406 165.6875,840.5781 L164.3125,839.0625 C163.7656,839.6563 163.1094,840.0469 162.3125,840.0469 C160.6406,840.0469 159.4844,838.7188 159.4844,836.4375 C159.4844,834.2188 160.6406,832.875 162.2031,832.875 C163.0156,832.875 163.6094,833.1875 164.1406,833.6719 L165.5156,832.125 C164.7656,831.3906 163.6094,830.7188 162.2031,830.7188 C159.25,830.7188 156.9219,832.8594 156.9219,836.5313 C156.9219,840.25 159.2969,842.2031 162.0469,842.2031 Z " fill="#000000"/><text fill="#000000" font-family="sans-serif" font-size="12" lengthAdjust="spacing" textLength="157" x="176" y="840.1016">QGraphicsDropShadowEffect</text><line style="stroke:#A80036;stroke-width:1.5;" x1="148" x2="335" y1="852" y2="852"/><line style="stroke:#A80036;stroke-width:1.5;" x1="148" x2="335" y1="860" y2="860"/><!--MD5=[df0f218a5726a83eae9f9ed95ea3e502]
class QGraphicsView--><rect codeLine="35" fill="#FEFECE" filter="url(#f1mo7x6lnxbvtx)" height="48" id="QGraphicsView" style="stroke:#A80036;stroke-width:1.5;" width="115" x="184" y="903"/><ellipse cx="199" cy="919" fill="#ADD1B2" rx="11" ry="11" style="stroke:#A80036;stroke-width:1.0;"/><path d="M199.0469,925.2031 C200.5469,925.2031 201.7813,924.6406 202.6875,923.5781 L201.3125,922.0625 C200.7656,922.6563 200.1094,923.0469 199.3125,923.0469 C197.6406,923.0469 196.4844,921.7188 196.4844,919.4375 C196.4844,917.2188 197.6406,915.875 199.2031,915.875 C200.0156,915.875 200.6094,916.1875 201.1406,916.6719 L202.5156,915.125 C201.7656,914.3906 200.6094,913.7188 199.2031,913.7188 C196.25,913.7188 193.9219,915.8594 193.9219,919.5313 C193.9219,923.25 196.2969,925.2031 199.0469,925.2031 Z " fill="#000000"/><text fill="#000000" font-family="sans-serif" font-size="12" lengthAdjust="spacing" textLength="83" x="213" y="923.1016">QGraphicsView</text><line style="stroke:#A80036;stroke-width:1.5;" x1="185" x2="298" y1="935" y2="935"/><line style="stroke:#A80036;stroke-width:1.5;" x1="185" x2="298" y1="943" y2="943"/><!--MD5=[d99941e70e2f9322d3d58dd9cd0250c3]
class QColor--><rect codeLine="7" fill="#FEFECE" filter="url(#f1mo7x6lnxbvtx)" height="48" id="QColor" style="stroke:#A80036;stroke-width:1.5;" width="70" x="206.5" y="1069"/><ellipse cx="221.5" cy="1085" fill="#ADD1B2" rx="11" ry="11" style="stroke:#A80036;stroke-width:1.0;"/><path d="M221.5469,1091.2031 C223.0469,1091.2031 224.2813,1090.6406 225.1875,1089.5781 L223.8125,1088.0625 C223.2656,1088.6563 222.6094,1089.0469 221.8125,1089.0469 C220.1406,1089.0469 218.9844,1087.7188 218.9844,1085.4375 C218.9844,1083.2188 220.1406,1081.875 221.7031,1081.875 C222.5156,1081.875 223.1094,1082.1875 223.6406,1082.6719 L225.0156,1081.125 C224.2656,1080.3906 223.1094,1079.7188 221.7031,1079.7188 C218.75,1079.7188 216.4219,1081.8594 216.4219,1085.5313 C216.4219,1089.25 218.7969,1091.2031 221.5469,1091.2031 Z " fill="#000000"/><text fill="#000000" font-family="sans-serif" font-size="12" lengthAdjust="spacing" textLength="38" x="235.5" y="1089.1016">QColor</text><line style="stroke:#A80036;stroke-width:1.5;" x1="207.5" x2="275.5" y1="1101" y2="1101"/><line style="stroke:#A80036;stroke-width:1.5;" x1="207.5" x2="275.5" y1="1109" y2="1109"/><!--MD5=[be72c923daf942456bb8fb3f3ed8ec5f]
class QPixmap--><rect codeLine="8" fill="#FEFECE" filter="url(#f1mo7x6lnxbvtx)" height="48" id="QPixmap" style="stroke:#A80036;stroke-width:1.5;" width="81" x="201" y="986"/><ellipse cx="216" cy="1002" fill="#ADD1B2" rx="11" ry="11" style="stroke:#A80036;stroke-width:1.0;"/><path d="M216.0469,1008.2031 C217.5469,1008.2031 218.7813,1007.6406 219.6875,1006.5781 L218.3125,1005.0625 C217.7656,1005.6563 217.1094,1006.0469 216.3125,1006.0469 C214.6406,1006.0469 213.4844,1004.7188 213.4844,1002.4375 C213.4844,1000.2188 214.6406,998.875 216.2031,998.875 C217.0156,998.875 217.6094,999.1875 218.1406,999.6719 L219.5156,998.125 C218.7656,997.3906 217.6094,996.7188 216.2031,996.7188 C213.25,996.7188 210.9219,998.8594 210.9219,1002.5313 C210.9219,1006.25 213.2969,1008.2031 216.0469,1008.2031 Z " fill="#000000"/><text fill="#000000" font-family="sans-serif" font-size="12" lengthAdjust="spacing" textLength="49" x="230" y="1006.1016">QPixmap</text><line style="stroke:#A80036;stroke-width:1.5;" x1="202" x2="281" y1="1018" y2="1018"/><line style="stroke:#A80036;stroke-width:1.5;" x1="202" x2="281" y1="1026" y2="1026"/><!--MD5=[5b815ae92dc0ad6967f3bdf0b3d2f39c]
class QPointF--><rect codeLine="11" fill="#FEFECE" filter="url(#f1mo7x6lnxbvtx)" height="48" id="QPointF" style="stroke:#A80036;stroke-width:1.5;" width="75" x="204" y="654"/><ellipse cx="219" cy="670" fill="#ADD1B2" rx="11" ry="11" style="stroke:#A80036;stroke-width:1.0;"/><path d="M219.0469,676.2031 C220.5469,676.2031 221.7813,675.6406 222.6875,674.5781 L221.3125,673.0625 C220.7656,673.6563 220.1094,674.0469 219.3125,674.0469 C217.6406,674.0469 216.4844,672.7188 216.4844,670.4375 C216.4844,668.2188 217.6406,666.875 219.2031,666.875 C220.0156,666.875 220.6094,667.1875 221.1406,667.6719 L222.5156,666.125 C221.7656,665.3906 220.6094,664.7188 219.2031,664.7188 C216.25,664.7188 213.9219,666.8594 213.9219,670.5313 C213.9219,674.25 216.2969,676.2031 219.0469,676.2031 Z " fill="#000000"/><text fill="#000000" font-family="sans-serif" font-size="12" lengthAdjust="spacing" textLength="43" x="233" y="674.1016">QPointF</text><line style="stroke:#A80036;stroke-width:1.5;" x1="205" x2="278" y1="686" y2="686"/><line style="stroke:#A80036;stroke-width:1.5;" x1="205" x2="278" y1="694" y2="694"/><!--MD5=[afc414560b7d248f9833ebf877c4d1a5]
class QLineF--><rect codeLine="12" fill="#FEFECE" filter="url(#f1mo7x6lnxbvtx)" height="48" id="QLineF" style="stroke:#A80036;stroke-width:1.5;" width="69" x="207" y="571"/><ellipse cx="222" cy="587" fill="#ADD1B2" rx="11" ry="11" style="stroke:#A80036;stroke-width:1.0;"/><path d="M222.0469,593.2031 C223.5469,593.2031 224.7813,592.6406 225.6875,591.5781 L224.3125,590.0625 C223.7656,590.6563 223.1094,591.0469 222.3125,591.0469 C220.6406,591.0469 219.4844,589.7188 219.4844,587.4375 C219.4844,585.2188 220.6406,583.875 222.2031,583.875 C223.0156,583.875 223.6094,584.1875 224.1406,584.6719 L225.5156,583.125 C224.7656,582.3906 223.6094,581.7188 222.2031,581.7188 C219.25,581.7188 216.9219,583.8594 216.9219,587.5313 C216.9219,591.25 219.2969,593.2031 222.0469,593.2031 Z " fill="#000000"/><text fill="#000000" font-family="sans-serif" font-size="12" lengthAdjust="spacing" textLength="37" x="236" y="591.1016">QLineF</text><line style="stroke:#A80036;stroke-width:1.5;" x1="208" x2="275" y1="603" y2="603"/><line style="stroke:#A80036;stroke-width:1.5;" x1="208" x2="275" y1="611" y2="611"/><!--MD5=[e6f5cd646746abec4f58b8252e1c0966]
class QPropertyAnimation--><rect codeLine="13" fill="#FEFECE" filter="url(#f1mo7x6lnxbvtx)" height="48" id="QPropertyAnimation" style="stroke:#A80036;stroke-width:1.5;" width="142" x="170.5" y="488"/><ellipse cx="185.5" cy="504" fill="#ADD1B2" rx="11" ry="11" style="stroke:#A80036;stroke-width:1.0;"/><path d="M185.5469,510.2031 C187.0469,510.2031 188.2813,509.6406 189.1875,508.5781 L187.8125,507.0625 C187.2656,507.6563 186.6094,508.0469 185.8125,508.0469 C184.1406,508.0469 182.9844,506.7188 182.9844,504.4375 C182.9844,502.2188 184.1406,500.875 185.7031,500.875 C186.5156,500.875 187.1094,501.1875 187.6406,501.6719 L189.0156,500.125 C188.2656,499.3906 187.1094,498.7188 185.7031,498.7188 C182.75,498.7188 180.4219,500.8594 180.4219,504.5313 C180.4219,508.25 182.7969,510.2031 185.5469,510.2031 Z " fill="#000000"/><text fill="#000000" font-family="sans-serif" font-size="12" lengthAdjust="spacing" textLength="110" x="199.5" y="508.1016">QPropertyAnimation</text><line style="stroke:#A80036;stroke-width:1.5;" x1="171.5" x2="311.5" y1="520" y2="520"/><line style="stroke:#A80036;stroke-width:1.5;" x1="171.5" x2="311.5" y1="528" y2="528"/><!--MD5=[36e7f5fc1003d5979d9be330a4070881]
class QRectF--><rect codeLine="14" fill="#FEFECE" filter="url(#f1mo7x6lnxbvtx)" height="48" id="QRectF" style="stroke:#A80036;stroke-width:1.5;" width="71" x="206" y="405"/><ellipse cx="221" cy="421" fill="#ADD1B2" rx="11" ry="11" style="stroke:#A80036;stroke-width:1.0;"/><path d="M221.0469,427.2031 C222.5469,427.2031 223.7813,426.6406 224.6875,425.5781 L223.3125,424.0625 C222.7656,424.6563 222.1094,425.0469 221.3125,425.0469 C219.6406,425.0469 218.4844,423.7188 218.4844,421.4375 C218.4844,419.2188 219.6406,417.875 221.2031,417.875 C222.0156,417.875 222.6094,418.1875 223.1406,418.6719 L224.5156,417.125 C223.7656,416.3906 222.6094,415.7188 221.2031,415.7188 C218.25,415.7188 215.9219,417.8594 215.9219,421.5313 C215.9219,425.25 218.2969,427.2031 221.0469,427.2031 Z " fill="#000000"/><text fill="#000000" font-family="sans-serif" font-size="12" lengthAdjust="spacing" textLength="39" x="235" y="425.1016">QRectF</text><line style="stroke:#A80036;stroke-width:1.5;" x1="207" x2="276" y1="437" y2="437"/><line style="stroke:#A80036;stroke-width:1.5;" x1="207" x2="276" y1="445" y2="445"/><!--MD5=[1df6e5bb6c1674438fa0894d323ee4be]
class QRect--><rect codeLine="15" fill="#FEFECE" filter="url(#f1mo7x6lnxbvtx)" height="48" id="QRect" style="stroke:#A80036;stroke-width:1.5;" width="65" x="767" y="571"/><ellipse cx="782" cy="587" fill="#ADD1B2" rx="11" ry="11" style="stroke:#A80036;stroke-width:1.0;"/><path d="M782.0469,593.2031 C783.5469,593.2031 784.7813,592.6406 785.6875,591.5781 L784.3125,590.0625 C783.7656,590.6563 783.1094,591.0469 782.3125,591.0469 C780.6406,591.0469 779.4844,589.7188 779.4844,587.4375 C779.4844,585.2188 780.6406,583.875 782.2031,583.875 C783.0156,583.875 783.6094,584.1875 784.1406,584.6719 L785.5156,583.125 C784.7656,582.3906 783.6094,581.7188 782.2031,581.7188 C779.25,581.7188 776.9219,583.8594 776.9219,587.5313 C776.9219,591.25 779.2969,593.2031 782.0469,593.2031 Z " fill="#000000"/><text fill="#000000" font-family="sans-serif" font-size="12" lengthAdjust="spacing" textLength="33" x="796" y="591.1016">QRect</text><line style="stroke:#A80036;stroke-width:1.5;" x1="768" x2="831" y1="603" y2="603"/><line style="stroke:#A80036;stroke-width:1.5;" x1="768" x2="831" y1="611" y2="611"/><!--MD5=[3ad409b201ce9a92bd1453eab8db6c57]
class Qt--><rect codeLine="16" fill="#FEFECE" filter="url(#f1mo7x6lnxbvtx)" height="48" id="Qt" style="stroke:#A80036;stroke-width:1.5;" width="45" x="777" y="488"/><ellipse cx="792" cy="504" fill="#ADD1B2" rx="11" ry="11" style="stroke:#A80036;stroke-width:1.0;"/><path d="M792.0469,510.2031 C793.5469,510.2031 794.7813,509.6406 795.6875,508.5781 L794.3125,507.0625 C793.7656,507.6563 793.1094,508.0469 792.3125,508.0469 C790.6406,508.0469 789.4844,506.7188 789.4844,504.4375 C789.4844,502.2188 790.6406,500.875 792.2031,500.875 C793.0156,500.875 793.6094,501.1875 794.1406,501.6719 L795.5156,500.125 C794.7656,499.3906 793.6094,498.7188 792.2031,498.7188 C789.25,498.7188 786.9219,500.8594 786.9219,504.5313 C786.9219,508.25 789.2969,510.2031 792.0469,510.2031 Z " fill="#000000"/><text fill="#000000" font-family="sans-serif" font-size="12" lengthAdjust="spacing" textLength="13" x="806" y="508.1016">Qt</text><line style="stroke:#A80036;stroke-width:1.5;" x1="778" x2="821" y1="520" y2="520"/><line style="stroke:#A80036;stroke-width:1.5;" x1="778" x2="821" y1="528" y2="528"/><!--MD5=[c343e706aaaefa5c5ece960162a33a39]
class QApplication--><rect codeLine="22" fill="#FEFECE" filter="url(#f1mo7x6lnxbvtx)" height="48" id="QApplication" style="stroke:#A80036;stroke-width:1.5;" width="101" x="191" y="1160"/><ellipse cx="206" cy="1176" fill="#ADD1B2" rx="11" ry="11" style="stroke:#A80036;stroke-width:1.0;"/><path d="M206.0469,1182.2031 C207.5469,1182.2031 208.7813,1181.6406 209.6875,1180.5781 L208.3125,1179.0625 C207.7656,1179.6563 207.1094,1180.0469 206.3125,1180.0469 C204.6406,1180.0469 203.4844,1178.7188 203.4844,1176.4375 C203.4844,1174.2188 204.6406,1172.875 206.2031,1172.875 C207.0156,1172.875 207.6094,1173.1875 208.1406,1173.6719 L209.5156,1172.125 C208.7656,1171.3906 207.6094,1170.7188 206.2031,1170.7188 C203.25,1170.7188 200.9219,1172.8594 200.9219,1176.5313 C200.9219,1180.25 203.2969,1182.2031 206.0469,1182.2031 Z " fill="#000000"/><text fill="#000000" font-family="sans-serif" font-size="12" lengthAdjust="spacing" textLength="69" x="220" y="1180.1016">QApplication</text><line style="stroke:#A80036;stroke-width:1.5;" x1="192" x2="291" y1="1192" y2="1192"/><line style="stroke:#A80036;stroke-width:1.5;" x1="192" x2="291" y1="1200" y2="1200"/><!--MD5=[4a69130f2d8b7b439f05ba14adb53a3d]
class QGraphicsObject--><rect codeLine="23" fill="#FEFECE" filter="url(#f1mo7x6lnxbvtx)" height="112.4531" id="QGraphicsObject" style="stroke:#A80036;stroke-width:1.5;" width="419" x="32" y="1243"/><ellipse cx="193.25" cy="1259" fill="#A9DCDF" rx="11" ry="11" style="stroke:#A80036;stroke-width:1.0;"/><path d="M192.3906,1258.6406 C192.6875,1257.5313 193,1256.25 193.2656,1255.0625 L193.3281,1255.0625 C193.5938,1256.25 193.9219,1257.5313 194.2188,1258.6406 L194.4688,1259.6563 L192.1406,1259.6563 L192.3906,1258.6406 Z M188.4063,1264.25 L190.9531,1264.25 L191.6406,1261.6094 L194.9844,1261.6094 L195.6406,1264.25 L198.2969,1264.25 L194.8438,1253.1719 L191.8594,1253.1719 L188.4063,1264.25 Z " fill="#000000"/><text fill="#000000" font-family="sans-serif" font-size="12" font-style="italic" lengthAdjust="spacing" textLength="88" x="213.75" y="1263.1016">QGraphicsObject</text><line style="stroke:#A80036;stroke-width:1.5;" x1="33" x2="450" y1="1275" y2="1275"/><line style="stroke:#A80036;stroke-width:1.5;" x1="33" x2="450" y1="1283" y2="1283"/><ellipse cx="43" cy="1294" fill="#84BE84" rx="3" ry="3" style="stroke:#038048;stroke-width:1.0;"/><text fill="#000000" font-family="sans-serif" font-size="11" lengthAdjust="spacing" textLength="79" x="52" y="1297.2051">__init__(parent)</text><ellipse cx="43" cy="1306.8906" fill="#84BE84" rx="3" ry="3" style="stroke:#038048;stroke-width:1.0;"/><text fill="#000000" font-family="sans-serif" font-size="11" lengthAdjust="spacing" textLength="105" x="52" y="1310.0957">setVisible(boolean)</text><ellipse cx="43" cy="1319.7813" fill="#84BE84" rx="3" ry="3" style="stroke:#038048;stroke-width:1.0;"/><text fill="#000000" font-family="sans-serif" font-size="11" lengthAdjust="spacing" textLength="74" x="52" y="1322.9863">setPos(int,int)</text><ellipse cx="43" cy="1332.6719" fill="#84BE84" rx="3" ry="3" style="stroke:#038048;stroke-width:1.0;"/><text fill="#000000" font-family="sans-serif" font-size="11" font-style="italic" lengthAdjust="spacing" textLength="113" x="52" y="1335.877">QRectF boundingRect()</text><ellipse cx="43" cy="1345.5625" fill="#84BE84" rx="3" ry="3" style="stroke:#038048;stroke-width:1.0;"/><text fill="#000000" font-family="sans-serif" font-size="11" font-style="italic" lengthAdjust="spacing" textLength="393" x="52" y="1348.7676">void paint(painter: QPainter, option: QStyleOptionGraphicsItem, [widget: QWidget])</text><!--MD5=[5ad6283ebb2a2d6082a48bed1cfeb5ae]
class QGraphicsItem--><rect codeLine="30" fill="#FEFECE" filter="url(#f1mo7x6lnxbvtx)" height="48" id="QGraphicsItem" style="stroke:#A80036;stroke-width:1.5;" width="109" x="187" y="1390"/><ellipse cx="202" cy="1406" fill="#A9DCDF" rx="11" ry="11" style="stroke:#A80036;stroke-width:1.0;"/><path d="M201.1406,1405.6406 C201.4375,1404.5313 201.75,1403.25 202.0156,1402.0625 L202.0781,1402.0625 C202.3438,1403.25 202.6719,1404.5313 202.9688,1405.6406 L203.2188,1406.6563 L200.8906,1406.6563 L201.1406,1405.6406 Z M197.1563,1411.25 L199.7031,1411.25 L200.3906,1408.6094 L203.7344,1408.6094 L204.3906,1411.25 L207.0469,1411.25 L203.5938,1400.1719 L200.6094,1400.1719 L197.1563,1411.25 Z " fill="#000000"/><text fill="#000000" font-family="sans-serif" font-size="12" font-style="italic" lengthAdjust="spacing" textLength="77" x="216" y="1410.1016">QGraphicsItem</text><line style="stroke:#A80036;stroke-width:1.5;" x1="188" x2="295" y1="1422" y2="1422"/><line style="stroke:#A80036;stroke-width:1.5;" x1="188" x2="295" y1="1430" y2="1430"/><!--MD5=[46b449127e5ecbd44e8ed3fd77fcb84f]
class QGraphicsSimpleTextItem--><rect codeLine="31" fill="#FEFECE" filter="url(#f1mo7x6lnxbvtx)" height="48" id="QGraphicsSimpleTextItem" style="stroke:#A80036;stroke-width:1.5;" width="174" x="154.5" y="1473"/><ellipse cx="169.5" cy="1489" fill="#ADD1B2" rx="11" ry="11" style="stroke:#A80036;stroke-width:1.0;"/><path d="M169.5469,1495.2031 C171.0469,1495.2031 172.2813,1494.6406 173.1875,1493.5781 L171.8125,1492.0625 C171.2656,1492.6563 170.6094,1493.0469 169.8125,1493.0469 C168.1406,1493.0469 166.9844,1491.7188 166.9844,1489.4375 C166.9844,1487.2188 168.1406,1485.875 169.7031,1485.875 C170.5156,1485.875 171.1094,1486.1875 171.6406,1486.6719 L173.0156,1485.125 C172.2656,1484.3906 171.1094,1483.7188 169.7031,1483.7188 C166.75,1483.7188 164.4219,1485.8594 164.4219,1489.5313 C164.4219,1493.25 166.7969,1495.2031 169.5469,1495.2031 Z " fill="#000000"/><text fill="#000000" font-family="sans-serif" font-size="12" lengthAdjust="spacing" textLength="142" x="183.5" y="1493.1016">QGraphicsSimpleTextItem</text><line style="stroke:#A80036;stroke-width:1.5;" x1="155.5" x2="327.5" y1="1505" y2="1505"/><line style="stroke:#A80036;stroke-width:1.5;" x1="155.5" x2="327.5" y1="1513" y2="1513"/><!--MD5=[953bf614be72e7d194664978e26f2629]
class QGraphicsPixmapItem--><rect codeLine="32" fill="#FEFECE" filter="url(#f1mo7x6lnxbvtx)" height="48" id="QGraphicsPixmapItem" style="stroke:#A80036;stroke-width:1.5;" width="153" x="165" y="1556"/><ellipse cx="180" cy="1572" fill="#ADD1B2" rx="11" ry="11" style="stroke:#A80036;stroke-width:1.0;"/><path d="M180.0469,1578.2031 C181.5469,1578.2031 182.7813,1577.6406 183.6875,1576.5781 L182.3125,1575.0625 C181.7656,1575.6563 181.1094,1576.0469 180.3125,1576.0469 C178.6406,1576.0469 177.4844,1574.7188 177.4844,1572.4375 C177.4844,1570.2188 178.6406,1568.875 180.2031,1568.875 C181.0156,1568.875 181.6094,1569.1875 182.1406,1569.6719 L183.5156,1568.125 C182.7656,1567.3906 181.6094,1566.7188 180.2031,1566.7188 C177.25,1566.7188 174.9219,1568.8594 174.9219,1572.5313 C174.9219,1576.25 177.2969,1578.2031 180.0469,1578.2031 Z " fill="#000000"/><text fill="#000000" font-family="sans-serif" font-size="12" lengthAdjust="spacing" textLength="121" x="194" y="1576.1016">QGraphicsPixmapItem</text><line style="stroke:#A80036;stroke-width:1.5;" x1="166" x2="317" y1="1588" y2="1588"/><line style="stroke:#A80036;stroke-width:1.5;" x1="166" x2="317" y1="1596" y2="1596"/><!--MD5=[964f074a2dd77d134c21b891bb53e381]
class Image--><rect codeLine="40" fill="#FEFECE" filter="url(#f1mo7x6lnxbvtx)" height="48" id="Image" style="stroke:#A80036;stroke-width:1.5;" width="66" x="208.5" y="116"/><ellipse cx="223.5" cy="132" fill="#ADD1B2" rx="11" ry="11" style="stroke:#A80036;stroke-width:1.0;"/><path d="M223.5469,138.2031 C225.0469,138.2031 226.2813,137.6406 227.1875,136.5781 L225.8125,135.0625 C225.2656,135.6563 224.6094,136.0469 223.8125,136.0469 C222.1406,136.0469 220.9844,134.7188 220.9844,132.4375 C220.9844,130.2188 222.1406,128.875 223.7031,128.875 C224.5156,128.875 225.1094,129.1875 225.6406,129.6719 L227.0156,128.125 C226.2656,127.3906 225.1094,126.7188 223.7031,126.7188 C220.75,126.7188 218.4219,128.8594 218.4219,132.5313 C218.4219,136.25 220.7969,138.2031 223.5469,138.2031 Z " fill="#000000"/><text fill="#000000" font-family="sans-serif" font-size="12" lengthAdjust="spacing" textLength="34" x="237.5" y="136.1016">Image</text><line style="stroke:#A80036;stroke-width:1.5;" x1="209.5" x2="273.5" y1="148" y2="148"/><line style="stroke:#A80036;stroke-width:1.5;" x1="209.5" x2="273.5" y1="156" y2="156"/><!--MD5=[4076f08dbe843381e67ec50a1b2696b0]
class ImageDraw--><rect codeLine="41" fill="#FEFECE" filter="url(#f1mo7x6lnxbvtx)" height="48" id="ImageDraw" style="stroke:#A80036;stroke-width:1.5;" width="94" x="194.5" y="33"/><ellipse cx="209.5" cy="49" fill="#ADD1B2" rx="11" ry="11" style="stroke:#A80036;stroke-width:1.0;"/><path d="M209.5469,55.2031 C211.0469,55.2031 212.2813,54.6406 213.1875,53.5781 L211.8125,52.0625 C211.2656,52.6563 210.6094,53.0469 209.8125,53.0469 C208.1406,53.0469 206.9844,51.7188 206.9844,49.4375 C206.9844,47.2188 208.1406,45.875 209.7031,45.875 C210.5156,45.875 211.1094,46.1875 211.6406,46.6719 L213.0156,45.125 C212.2656,44.3906 211.1094,43.7188 209.7031,43.7188 C206.75,43.7188 204.4219,45.8594 204.4219,49.5313 C204.4219,53.25 206.7969,55.2031 209.5469,55.2031 Z " fill="#000000"/><text fill="#000000" font-family="sans-serif" font-size="12" lengthAdjust="spacing" textLength="62" x="223.5" y="53.1016">ImageDraw</text><line style="stroke:#A80036;stroke-width:1.5;" x1="195.5" x2="287.5" y1="65" y2="65"/><line style="stroke:#A80036;stroke-width:1.5;" x1="195.5" x2="287.5" y1="73" y2="73"/><!--MD5=[6f470b042a0bf5f55c42ea6fb256d504]
class ImageQt--><rect codeLine="42" fill="#FEFECE" filter="url(#f1mo7x6lnxbvtx)" height="48" id="ImageQt" style="stroke:#A80036;stroke-width:1.5;" width="79" x="760" y="116"/><ellipse cx="775" cy="132" fill="#ADD1B2" rx="11" ry="11" style="stroke:#A80036;stroke-width:1.0;"/><path d="M775.0469,138.2031 C776.5469,138.2031 777.7813,137.6406 778.6875,136.5781 L777.3125,135.0625 C776.7656,135.6563 776.1094,136.0469 775.3125,136.0469 C773.6406,136.0469 772.4844,134.7188 772.4844,132.4375 C772.4844,130.2188 773.6406,128.875 775.2031,128.875 C776.0156,128.875 776.6094,129.1875 777.1406,129.6719 L778.5156,128.125 C777.7656,127.3906 776.6094,126.7188 775.2031,126.7188 C772.25,126.7188 769.9219,128.8594 769.9219,132.5313 C769.9219,136.25 772.2969,138.2031 775.0469,138.2031 Z " fill="#000000"/><text fill="#000000" font-family="sans-serif" font-size="12" lengthAdjust="spacing" textLength="47" x="789" y="136.1016">ImageQt</text><line style="stroke:#A80036;stroke-width:1.5;" x1="761" x2="838" y1="148" y2="148"/><line style="stroke:#A80036;stroke-width:1.5;" x1="761" x2="838" y1="156" y2="156"/><!--MD5=[6dd4183b220483290bcef81502bc7810]
class Side--><rect codeLine="67" fill="#FEFECE" filter="url(#f1mo7x6lnxbvtx)" height="99.5625" id="Side" style="stroke:#A80036;stroke-width:1.5;" width="463" x="568" y="2565"/><ellipse cx="783.75" cy="2581" fill="#ADD1B2" rx="11" ry="11" style="stroke:#A80036;stroke-width:1.0;"/><path d="M783.7969,2587.2031 C785.2969,2587.2031 786.5313,2586.6406 787.4375,2585.5781 L786.0625,2584.0625 C785.5156,2584.6563 784.8594,2585.0469 784.0625,2585.0469 C782.3906,2585.0469 781.2344,2583.7188 781.2344,2581.4375 C781.2344,2579.2188 782.3906,2577.875 783.9531,2577.875 C784.7656,2577.875 785.3594,2578.1875 785.8906,2578.6719 L787.2656,2577.125 C786.5156,2576.3906 785.3594,2575.7188 783.9531,2575.7188 C781,2575.7188 778.6719,2577.8594 778.6719,2581.5313 C778.6719,2585.25 781.0469,2587.2031 783.7969,2587.2031 Z " fill="#000000"/><text fill="#000000" font-family="sans-serif" font-size="12" lengthAdjust="spacing" textLength="23" x="804.25" y="2585.1016">Side</text><line style="stroke:#A80036;stroke-width:1.5;" x1="569" x2="1030" y1="2597" y2="2597"/><line style="stroke:#A80036;stroke-width:1.5;" x1="569" x2="1030" y1="2605" y2="2605"/><ellipse cx="579" cy="2616" fill="#84BE84" rx="3" ry="3" style="stroke:#038048;stroke-width:1.0;"/><text fill="#000000" font-family="sans-serif" font-size="11" lengthAdjust="spacing" textLength="350" x="588" y="2619.2051">__init__(numero: int, color0: Color, color1: Color, pen: Pen, parent)</text><ellipse cx="579" cy="2628.8906" fill="#84BE84" rx="3" ry="3" style="stroke:#038048;stroke-width:1.0;"/><text fill="#000000" font-family="sans-serif" font-size="11" lengthAdjust="spacing" textLength="125" x="588" y="2632.0957">QRectF boundingRect()</text><ellipse cx="579" cy="2641.7813" fill="#84BE84" rx="3" ry="3" style="stroke:#038048;stroke-width:1.0;"/><text fill="#000000" font-family="sans-serif" font-size="11" lengthAdjust="spacing" textLength="437" x="588" y="2644.9863">void paint(painter: QPainter, option: QStyleOptionGraphicsItem, [widget: QWidget])</text><ellipse cx="579" cy="2654.6719" fill="#84BE84" rx="3" ry="3" style="stroke:#038048;stroke-width:1.0;"/><text fill="#000000" font-family="sans-serif" font-size="11" lengthAdjust="spacing" textLength="119" x="588" y="2657.877">addCardToSide(i,pos)</text><!--MD5=[950ba1a9b664b7dbe203dbb6787ac8d6]
class UserSide--><rect codeLine="74" fill="#FEFECE" filter="url(#f1mo7x6lnxbvtx)" height="48" id="UserSide" style="stroke:#A80036;stroke-width:1.5;" width="80" x="1129" y="2546"/><ellipse cx="1144" cy="2562" fill="#ADD1B2" rx="11" ry="11" style="stroke:#A80036;stroke-width:1.0;"/><path d="M1144.0469,2568.2031 C1145.5469,2568.2031 1146.7813,2567.6406 1147.6875,2566.5781 L1146.3125,2565.0625 C1145.7656,2565.6563 1145.1094,2566.0469 1144.3125,2566.0469 C1142.6406,2566.0469 1141.4844,2564.7188 1141.4844,2562.4375 C1141.4844,2560.2188 1142.6406,2558.875 1144.2031,2558.875 C1145.0156,2558.875 1145.6094,2559.1875 1146.1406,2559.6719 L1147.5156,2558.125 C1146.7656,2557.3906 1145.6094,2556.7188 1144.2031,2556.7188 C1141.25,2556.7188 1138.9219,2558.8594 1138.9219,2562.5313 C1138.9219,2566.25 1141.2969,2568.2031 1144.0469,2568.2031 Z " fill="#000000"/><text fill="#000000" font-family="sans-serif" font-size="12" lengthAdjust="spacing" textLength="48" x="1158" y="2566.1016">UserSide</text><line style="stroke:#A80036;stroke-width:1.5;" x1="1130" x2="1208" y1="2578" y2="2578"/><line style="stroke:#A80036;stroke-width:1.5;" x1="1130" x2="1208" y1="2586" y2="2586"/><!--MD5=[ebbc0cbb443b1d8f4eb9e036f2716d99]
class AutoSide--><rect codeLine="78" fill="#FEFECE" filter="url(#f1mo7x6lnxbvtx)" height="73.7813" id="AutoSide" style="stroke:#A80036;stroke-width:1.5;" width="154" x="1092" y="2629"/><ellipse cx="1140.25" cy="2645" fill="#ADD1B2" rx="11" ry="11" style="stroke:#A80036;stroke-width:1.0;"/><path d="M1140.2969,2651.2031 C1141.7969,2651.2031 1143.0313,2650.6406 1143.9375,2649.5781 L1142.5625,2648.0625 C1142.0156,2648.6563 1141.3594,2649.0469 1140.5625,2649.0469 C1138.8906,2649.0469 1137.7344,2647.7188 1137.7344,2645.4375 C1137.7344,2643.2188 1138.8906,2641.875 1140.4531,2641.875 C1141.2656,2641.875 1141.8594,2642.1875 1142.3906,2642.6719 L1143.7656,2641.125 C1143.0156,2640.3906 1141.8594,2639.7188 1140.4531,2639.7188 C1137.5,2639.7188 1135.1719,2641.8594 1135.1719,2645.5313 C1135.1719,2649.25 1137.5469,2651.2031 1140.2969,2651.2031 Z " fill="#000000"/><text fill="#000000" font-family="sans-serif" font-size="12" lengthAdjust="spacing" textLength="49" x="1160.75" y="2649.1016">AutoSide</text><line style="stroke:#A80036;stroke-width:1.5;" x1="1093" x2="1245" y1="2661" y2="2661"/><line style="stroke:#A80036;stroke-width:1.5;" x1="1093" x2="1245" y1="2669" y2="2669"/><ellipse cx="1103" cy="2680" fill="#84BE84" rx="3" ry="3" style="stroke:#038048;stroke-width:1.0;"/><text fill="#000000" font-family="sans-serif" font-size="11" lengthAdjust="spacing" textLength="128" x="1112" y="2683.2051">__init__(numero, parent)</text><ellipse cx="1103" cy="2692.8906" fill="#84BE84" rx="3" ry="3" style="stroke:#038048;stroke-width:1.0;"/><text fill="#000000" font-family="sans-serif" font-size="11" lengthAdjust="spacing" textLength="57" x="1112" y="2696.0957">addCard(i)</text><!--MD5=[5e305716458bbdabbd2d7f572ed2bae2]
class Card--><rect codeLine="45" fill="#FEFECE" filter="url(#f1mo7x6lnxbvtx)" height="159.125" id="Card" style="stroke:#A80036;stroke-width:1.5;" width="101" x="749" y="1877.5"/><ellipse cx="783.35" cy="1893.5" fill="#ADD1B2" rx="11" ry="11" style="stroke:#A80036;stroke-width:1.0;"/><path d="M783.3969,1899.7031 C784.8969,1899.7031 786.1313,1899.1406 787.0375,1898.0781 L785.6625,1896.5625 C785.1156,1897.1563 784.4594,1897.5469 783.6625,1897.5469 C781.9906,1897.5469 780.8344,1896.2188 780.8344,1893.9375 C780.8344,1891.7188 781.9906,1890.375 783.5531,1890.375 C784.3656,1890.375 784.9594,1890.6875 785.4906,1891.1719 L786.8656,1889.625 C786.1156,1888.8906 784.9594,1888.2188 783.5531,1888.2188 C780.6,1888.2188 778.2719,1890.3594 778.2719,1894.0313 C778.2719,1897.75 780.6469,1899.7031 783.3969,1899.7031 Z " fill="#000000"/><text fill="#000000" font-family="sans-serif" font-size="12" lengthAdjust="spacing" textLength="26" x="801.65" y="1897.6016">Card</text><line style="stroke:#A80036;stroke-width:1.5;" x1="750" x2="849" y1="1909.5" y2="1909.5"/><rect fill="none" height="6" style="stroke:#C82930;stroke-width:1.0;" width="6" x="757" y="1917.5"/><text fill="#000000" font-family="sans-serif" font-size="11" lengthAdjust="spacing" text-decoration="underline" textLength="75" x="769" y="1923.7051">int total_cards</text><ellipse cx="760" cy="1933.3906" rx="3" ry="3" style="stroke:#038048;stroke-width:1.0;fill:none;"/><text fill="#000000" font-family="sans-serif" font-size="11" lengthAdjust="spacing" textLength="52" x="769" y="1936.5957">List cards</text><ellipse cx="760" cy="1946.2813" rx="3" ry="3" style="stroke:#038048;stroke-width:1.0;fill:none;"/><text fill="#000000" font-family="sans-serif" font-size="11" lengthAdjust="spacing" text-decoration="underline" textLength="28" x="769" y="1949.4863">width</text><ellipse cx="760" cy="1959.1719" rx="3" ry="3" style="stroke:#038048;stroke-width:1.0;fill:none;"/><text fill="#000000" font-family="sans-serif" font-size="11" lengthAdjust="spacing" text-decoration="underline" textLength="34" x="769" y="1962.377">height</text><text fill="#000000" font-family="sans-serif" font-size="11" lengthAdjust="spacing" textLength="3" x="769" y="1975.2676">-</text><text fill="#000000" font-family="sans-serif" font-size="11" lengthAdjust="spacing" textLength="43" x="769" y="1988.1582">numero</text><text fill="#000000" font-family="sans-serif" font-size="11" lengthAdjust="spacing" textLength="29" x="769" y="2001.0488">index</text><line style="stroke:#A80036;stroke-width:1.0;" x1="750" x2="849" y1="2007.7344" y2="2007.7344"/><line style="stroke:#A80036;stroke-width:1.0;" x1="750" x2="849" y1="2009.7344" y2="2009.7344"/><text fill="#000000" font-family="sans-serif" font-size="11" lengthAdjust="spacing" textLength="0" x="758" y="2021.9395"/><line style="stroke:#A80036;stroke-width:1.0;" x1="750" x2="849" y1="2028.625" y2="2028.625"/><!--MD5=[d293d6769e6c111f745adb643d5e33dd]
class Stone--><rect codeLine="61" fill="#FEFECE" filter="url(#f1mo7x6lnxbvtx)" height="48" id="Stone" style="stroke:#A80036;stroke-width:1.5;" width="63" x="768" y="2072"/><ellipse cx="783" cy="2088" fill="#ADD1B2" rx="11" ry="11" style="stroke:#A80036;stroke-width:1.0;"/><path d="M783.0469,2094.2031 C784.5469,2094.2031 785.7813,2093.6406 786.6875,2092.5781 L785.3125,2091.0625 C784.7656,2091.6563 784.1094,2092.0469 783.3125,2092.0469 C781.6406,2092.0469 780.4844,2090.7188 780.4844,2088.4375 C780.4844,2086.2188 781.6406,2084.875 783.2031,2084.875 C784.0156,2084.875 784.6094,2085.1875 785.1406,2085.6719 L786.5156,2084.125 C785.7656,2083.3906 784.6094,2082.7188 783.2031,2082.7188 C780.25,2082.7188 777.9219,2084.8594 777.9219,2088.5313 C777.9219,2092.25 780.2969,2094.2031 783.0469,2094.2031 Z " fill="#000000"/><text fill="#000000" font-family="sans-serif" font-size="12" lengthAdjust="spacing" textLength="31" x="797" y="2092.1016">Stone</text><line style="stroke:#A80036;stroke-width:1.5;" x1="769" x2="830" y1="2104" y2="2104"/><line style="stroke:#A80036;stroke-width:1.5;" x1="769" x2="830" y1="2112" y2="2112"/><!--MD5=[f84229a7658f804a248f87f24502d86f]
class Style--><rect codeLine="175" fill="#FEFECE" filter="url(#f1mo7x6lnxbvtx)" height="280.0313" id="Style" style="stroke:#A80036;stroke-width:1.5;" width="150" x="724.5" y="2968"/><ellipse cx="782.25" cy="2984" fill="#ADD1B2" rx="11" ry="11" style="stroke:#A80036;stroke-width:1.0;"/><path d="M782.2969,2990.2031 C783.7969,2990.2031 785.0313,2989.6406 785.9375,2988.5781 L784.5625,2987.0625 C784.0156,2987.6563 783.3594,2988.0469 782.5625,2988.0469 C780.8906,2988.0469 779.7344,2986.7188 779.7344,2984.4375 C779.7344,2982.2188 780.8906,2980.875 782.4531,2980.875 C783.2656,2980.875 783.8594,2981.1875 784.3906,2981.6719 L785.7656,2980.125 C785.0156,2979.3906 783.8594,2978.7188 782.4531,2978.7188 C779.5,2978.7188 777.1719,2980.8594 777.1719,2984.5313 C777.1719,2988.25 779.5469,2990.2031 782.2969,2990.2031 Z " fill="#000000"/><text fill="#000000" font-family="sans-serif" font-size="12" lengthAdjust="spacing" textLength="26" x="802.75" y="2988.1016">Style</text><line style="stroke:#A80036;stroke-width:1.5;" x1="725.5" x2="873.5" y1="3000" y2="3000"/><text fill="#000000" font-family="sans-serif" font-size="11" lengthAdjust="spacing" text-decoration="underline" textLength="96" x="730.5" y="3014.2051">Color cadre_color</text><text fill="#000000" font-family="sans-serif" font-size="11" lengthAdjust="spacing" text-decoration="underline" textLength="92" x="730.5" y="3027.0957">Color relief_color</text><text fill="#000000" font-family="sans-serif" font-size="11" lengthAdjust="spacing" text-decoration="underline" textLength="98" x="730.5" y="3039.9863">Color relief_color2</text><text fill="#000000" font-family="sans-serif" font-size="11" lengthAdjust="spacing" text-decoration="underline" textLength="122" x="730.5" y="3052.877">QColor ombrage_color</text><text fill="#000000" font-family="sans-serif" font-size="11" lengthAdjust="spacing" text-decoration="underline" textLength="137" x="730.5" y="3065.7676">QColor ombrage_color_bt</text><text fill="#000000" font-family="sans-serif" font-size="11" lengthAdjust="spacing" text-decoration="underline" textLength="138" x="730.5" y="3078.6582">QColor background_color</text><text fill="#000000" font-family="sans-serif" font-size="11" lengthAdjust="spacing" textLength="0" x="733.5" y="3091.5488"/><text fill="#000000" font-family="sans-serif" font-size="11" lengthAdjust="spacing" text-decoration="underline" textLength="130" x="730.5" y="3104.4395">QColor user_side_color0</text><text fill="#000000" font-family="sans-serif" font-size="11" lengthAdjust="spacing" text-decoration="underline" textLength="130" x="730.5" y="3117.3301">QColor user_side_color1</text><text fill="#000000" font-family="sans-serif" font-size="11" lengthAdjust="spacing" text-decoration="underline" textLength="117" x="730.5" y="3130.2207">QColor user_side_pen</text><text fill="#000000" font-family="sans-serif" font-size="11" lengthAdjust="spacing" text-decoration="underline" textLength="129" x="730.5" y="3143.1113">QColor user_hand_color</text><text fill="#000000" font-family="sans-serif" font-size="11" lengthAdjust="spacing" text-decoration="underline" textLength="122" x="730.5" y="3156.002">QColor user_hand_pen</text><text fill="#000000" font-family="sans-serif" font-size="11" lengthAdjust="spacing" textLength="0" x="733.5" y="3168.8926"/><text fill="#000000" font-family="sans-serif" font-size="11" lengthAdjust="spacing" text-decoration="underline" textLength="130" x="730.5" y="3181.7832">QColor auto_side_color0</text><text fill="#000000" font-family="sans-serif" font-size="11" lengthAdjust="spacing" text-decoration="underline" textLength="130" x="730.5" y="3194.6738">QColor auto_side_color1</text><text fill="#000000" font-family="sans-serif" font-size="11" lengthAdjust="spacing" text-decoration="underline" textLength="117" x="730.5" y="3207.5645">QColor auto_side_pen</text><text fill="#000000" font-family="sans-serif" font-size="11" lengthAdjust="spacing" text-decoration="underline" textLength="129" x="730.5" y="3220.4551">QColor auto_hand_color</text><text fill="#000000" font-family="sans-serif" font-size="11" lengthAdjust="spacing" text-decoration="underline" textLength="122" x="730.5" y="3233.3457">QColor auto_hand_pen</text><line style="stroke:#A80036;stroke-width:1.5;" x1="725.5" x2="873.5" y1="3240.0313" y2="3240.0313"/><!--MD5=[40d2668bbcd459976779c45dfe17221f]
class Statistics--><rect codeLine="160" fill="#FEFECE" filter="url(#f1mo7x6lnxbvtx)" height="48" id="Statistics" style="stroke:#A80036;stroke-width:1.5;" width="84" x="757.5" y="3283"/><ellipse cx="772.5" cy="3299" fill="#ADD1B2" rx="11" ry="11" style="stroke:#A80036;stroke-width:1.0;"/><path d="M772.5469,3305.2031 C774.0469,3305.2031 775.2813,3304.6406 776.1875,3303.5781 L774.8125,3302.0625 C774.2656,3302.6563 773.6094,3303.0469 772.8125,3303.0469 C771.1406,3303.0469 769.9844,3301.7188 769.9844,3299.4375 C769.9844,3297.2188 771.1406,3295.875 772.7031,3295.875 C773.5156,3295.875 774.1094,3296.1875 774.6406,3296.6719 L776.0156,3295.125 C775.2656,3294.3906 774.1094,3293.7188 772.7031,3293.7188 C769.75,3293.7188 767.4219,3295.8594 767.4219,3299.5313 C767.4219,3303.25 769.7969,3305.2031 772.5469,3305.2031 Z " fill="#000000"/><text fill="#000000" font-family="sans-serif" font-size="12" lengthAdjust="spacing" textLength="52" x="786.5" y="3303.1016">Statistics</text><line style="stroke:#A80036;stroke-width:1.5;" x1="758.5" x2="840.5" y1="3315" y2="3315"/><line style="stroke:#A80036;stroke-width:1.5;" x1="758.5" x2="840.5" y1="3323" y2="3323"/><!--MD5=[30e7dab150005cbc939f3a3b6c7a6549]
class Curtain--><rect codeLine="90" fill="#FEFECE" filter="url(#f1mo7x6lnxbvtx)" height="125.3438" id="Curtain" style="stroke:#A80036;stroke-width:1.5;" width="463" x="568" y="2155.5"/><ellipse cx="775.25" cy="2171.5" fill="#ADD1B2" rx="11" ry="11" style="stroke:#A80036;stroke-width:1.0;"/><path d="M775.2969,2177.7031 C776.7969,2177.7031 778.0313,2177.1406 778.9375,2176.0781 L777.5625,2174.5625 C777.0156,2175.1563 776.3594,2175.5469 775.5625,2175.5469 C773.8906,2175.5469 772.7344,2174.2188 772.7344,2171.9375 C772.7344,2169.7188 773.8906,2168.375 775.4531,2168.375 C776.2656,2168.375 776.8594,2168.6875 777.3906,2169.1719 L778.7656,2167.625 C778.0156,2166.8906 776.8594,2166.2188 775.4531,2166.2188 C772.5,2166.2188 770.1719,2168.3594 770.1719,2172.0313 C770.1719,2175.75 772.5469,2177.7031 775.2969,2177.7031 Z " fill="#000000"/><text fill="#000000" font-family="sans-serif" font-size="12" lengthAdjust="spacing" textLength="40" x="795.75" y="2175.6016">Curtain</text><line style="stroke:#A80036;stroke-width:1.5;" x1="569" x2="1030" y1="2187.5" y2="2187.5"/><line style="stroke:#A80036;stroke-width:1.0;" x1="569" x2="1030" y1="2195.5" y2="2195.5"/><line style="stroke:#A80036;stroke-width:1.0;" x1="569" x2="1030" y1="2197.5" y2="2197.5"/><ellipse cx="579" cy="2206.5" fill="#84BE84" rx="3" ry="3" style="stroke:#038048;stroke-width:1.0;"/><text fill="#000000" font-family="sans-serif" font-size="11" lengthAdjust="spacing" textLength="79" x="588" y="2209.7051">__init__(parent)</text><ellipse cx="579" cy="2219.3906" fill="#84BE84" rx="3" ry="3" style="stroke:#038048;stroke-width:1.0;"/><text fill="#000000" font-family="sans-serif" font-size="11" lengthAdjust="spacing" textLength="122" x="588" y="2222.5957">QrectF boundingRect()</text><ellipse cx="579" cy="2232.2813" fill="#84BE84" rx="3" ry="3" style="stroke:#038048;stroke-width:1.0;"/><text fill="#000000" font-family="sans-serif" font-size="11" lengthAdjust="spacing" textLength="437" x="588" y="2235.4863">void paint(painter: QPainter, option: QStyleOptionGraphicsItem, [widget: QWidget])</text><ellipse cx="579" cy="2245.1719" fill="#84BE84" rx="3" ry="3" style="stroke:#038048;stroke-width:1.0;"/><text fill="#000000" font-family="sans-serif" font-size="11" lengthAdjust="spacing" textLength="135" x="588" y="2248.377">void animate_incoming()</text><ellipse cx="579" cy="2258.0625" fill="#84BE84" rx="3" ry="3" style="stroke:#038048;stroke-width:1.0;"/><text fill="#000000" font-family="sans-serif" font-size="11" lengthAdjust="spacing" textLength="97" x="588" y="2261.2676">animate_leaving()</text><ellipse cx="579" cy="2270.9531" fill="#84BE84" rx="3" ry="3" style="stroke:#038048;stroke-width:1.0;"/><text fill="#000000" font-family="sans-serif" font-size="11" lengthAdjust="spacing" textLength="49" x="588" y="2274.1582">remove()</text><!--MD5=[8205126d58f07ea6b839cb2e8db60d96]
class Chifoumi--><rect codeLine="101" fill="#FEFECE" filter="url(#f1mo7x6lnxbvtx)" height="48" id="Chifoumi" style="stroke:#A80036;stroke-width:1.5;" width="82" x="1128" y="2111"/><ellipse cx="1143" cy="2127" fill="#ADD1B2" rx="11" ry="11" style="stroke:#A80036;stroke-width:1.0;"/><path d="M1143.0469,2133.2031 C1144.5469,2133.2031 1145.7813,2132.6406 1146.6875,2131.5781 L1145.3125,2130.0625 C1144.7656,2130.6563 1144.1094,2131.0469 1143.3125,2131.0469 C1141.6406,2131.0469 1140.4844,2129.7188 1140.4844,2127.4375 C1140.4844,2125.2188 1141.6406,2123.875 1143.2031,2123.875 C1144.0156,2123.875 1144.6094,2124.1875 1145.1406,2124.6719 L1146.5156,2123.125 C1145.7656,2122.3906 1144.6094,2121.7188 1143.2031,2121.7188 C1140.25,2121.7188 1137.9219,2123.8594 1137.9219,2127.5313 C1137.9219,2131.25 1140.2969,2133.2031 1143.0469,2133.2031 Z " fill="#000000"/><text fill="#000000" font-family="sans-serif" font-size="12" lengthAdjust="spacing" textLength="50" x="1157" y="2131.1016">Chifoumi</text><line style="stroke:#A80036;stroke-width:1.5;" x1="1129" x2="1209" y1="2143" y2="2143"/><line style="stroke:#A80036;stroke-width:1.5;" x1="1129" x2="1209" y1="2151" y2="2151"/><!--MD5=[85bae912d113bb0b86a623a745020199]
class Home--><rect codeLine="106" fill="#FEFECE" filter="url(#f1mo7x6lnxbvtx)" height="48" id="Home" style="stroke:#A80036;stroke-width:1.5;" width="64" x="1137" y="2194"/><ellipse cx="1152" cy="2210" fill="#ADD1B2" rx="11" ry="11" style="stroke:#A80036;stroke-width:1.0;"/><path d="M1152.0469,2216.2031 C1153.5469,2216.2031 1154.7813,2215.6406 1155.6875,2214.5781 L1154.3125,2213.0625 C1153.7656,2213.6563 1153.1094,2214.0469 1152.3125,2214.0469 C1150.6406,2214.0469 1149.4844,2212.7188 1149.4844,2210.4375 C1149.4844,2208.2188 1150.6406,2206.875 1152.2031,2206.875 C1153.0156,2206.875 1153.6094,2207.1875 1154.1406,2207.6719 L1155.5156,2206.125 C1154.7656,2205.3906 1153.6094,2204.7188 1152.2031,2204.7188 C1149.25,2204.7188 1146.9219,2206.8594 1146.9219,2210.5313 C1146.9219,2214.25 1149.2969,2216.2031 1152.0469,2216.2031 Z " fill="#000000"/><text fill="#000000" font-family="sans-serif" font-size="12" lengthAdjust="spacing" textLength="32" x="1166" y="2214.1016">Home</text><line style="stroke:#A80036;stroke-width:1.5;" x1="1138" x2="1200" y1="2226" y2="2226"/><line style="stroke:#A80036;stroke-width:1.5;" x1="1138" x2="1200" y1="2234" y2="2234"/><!--MD5=[44c6e631e2d068bdc58a8728fbbdad7b]
class Clickable--><rect codeLine="111" fill="#FEFECE" filter="url(#f1mo7x6lnxbvtx)" height="48" id="Clickable" style="stroke:#A80036;stroke-width:1.5;" width="80" x="759.5" y="2802"/><ellipse cx="774.5" cy="2818" fill="#ADD1B2" rx="11" ry="11" style="stroke:#A80036;stroke-width:1.0;"/><path d="M774.5469,2824.2031 C776.0469,2824.2031 777.2813,2823.6406 778.1875,2822.5781 L776.8125,2821.0625 C776.2656,2821.6563 775.6094,2822.0469 774.8125,2822.0469 C773.1406,2822.0469 771.9844,2820.7188 771.9844,2818.4375 C771.9844,2816.2188 773.1406,2814.875 774.7031,2814.875 C775.5156,2814.875 776.1094,2815.1875 776.6406,2815.6719 L778.0156,2814.125 C777.2656,2813.3906 776.1094,2812.7188 774.7031,2812.7188 C771.75,2812.7188 769.4219,2814.8594 769.4219,2818.5313 C769.4219,2822.25 771.7969,2824.2031 774.5469,2824.2031 Z " fill="#000000"/><text fill="#000000" font-family="sans-serif" font-size="12" lengthAdjust="spacing" textLength="48" x="788.5" y="2822.1016">Clickable</text><line style="stroke:#A80036;stroke-width:1.5;" x1="760.5" x2="838.5" y1="2834" y2="2834"/><line style="stroke:#A80036;stroke-width:1.5;" x1="760.5" x2="838.5" y1="2842" y2="2842"/><!--MD5=[30299a58ba6b78debaaed5ddbb42f29a]
class Deck--><rect codeLine="116" fill="#FEFECE" filter="url(#f1mo7x6lnxbvtx)" height="48" id="Deck" style="stroke:#A80036;stroke-width:1.5;" width="58" x="770.5" y="2885"/><ellipse cx="785.5" cy="2901" fill="#ADD1B2" rx="11" ry="11" style="stroke:#A80036;stroke-width:1.0;"/><path d="M785.5469,2907.2031 C787.0469,2907.2031 788.2813,2906.6406 789.1875,2905.5781 L787.8125,2904.0625 C787.2656,2904.6563 786.6094,2905.0469 785.8125,2905.0469 C784.1406,2905.0469 782.9844,2903.7188 782.9844,2901.4375 C782.9844,2899.2188 784.1406,2897.875 785.7031,2897.875 C786.5156,2897.875 787.1094,2898.1875 787.6406,2898.6719 L789.0156,2897.125 C788.2656,2896.3906 787.1094,2895.7188 785.7031,2895.7188 C782.75,2895.7188 780.4219,2897.8594 780.4219,2901.5313 C780.4219,2905.25 782.7969,2907.2031 785.5469,2907.2031 Z " fill="#000000"/><text fill="#000000" font-family="sans-serif" font-size="12" lengthAdjust="spacing" textLength="26" x="799.5" y="2905.1016">Deck</text><line style="stroke:#A80036;stroke-width:1.5;" x1="771.5" x2="827.5" y1="2917" y2="2917"/><line style="stroke:#A80036;stroke-width:1.5;" x1="771.5" x2="827.5" y1="2925" y2="2925"/><!--MD5=[8d0459fdd123d8c66d85ecf9d1f1a203]
class MovingCard--><rect codeLine="121" fill="#FEFECE" filter="url(#f1mo7x6lnxbvtx)" height="48" id="MovingCard" style="stroke:#A80036;stroke-width:1.5;" width="98" x="192.5" y="212"/><ellipse cx="207.5" cy="228" fill="#ADD1B2" rx="11" ry="11" style="stroke:#A80036;stroke-width:1.0;"/><path d="M207.5469,234.2031 C209.0469,234.2031 210.2813,233.6406 211.1875,232.5781 L209.8125,231.0625 C209.2656,231.6563 208.6094,232.0469 207.8125,232.0469 C206.1406,232.0469 204.9844,230.7188 204.9844,228.4375 C204.9844,226.2188 206.1406,224.875 207.7031,224.875 C208.5156,224.875 209.1094,225.1875 209.6406,225.6719 L211.0156,224.125 C210.2656,223.3906 209.1094,222.7188 207.7031,222.7188 C204.75,222.7188 202.4219,224.8594 202.4219,228.5313 C202.4219,232.25 204.7969,234.2031 207.5469,234.2031 Z " fill="#000000"/><text fill="#000000" font-family="sans-serif" font-size="12" lengthAdjust="spacing" textLength="66" x="221.5" y="232.1016">MovingCard</text><line style="stroke:#A80036;stroke-width:1.5;" x1="193.5" x2="289.5" y1="244" y2="244"/><line style="stroke:#A80036;stroke-width:1.5;" x1="193.5" x2="289.5" y1="252" y2="252"/><!--MD5=[ff066ea699d740a1580fc7896d1843ad]
class Ombrage--><rect codeLine="125" fill="#FEFECE" filter="url(#f1mo7x6lnxbvtx)" height="48" id="Ombrage" style="stroke:#A80036;stroke-width:1.5;" width="82" x="758.5" y="1711"/><ellipse cx="773.5" cy="1727" fill="#ADD1B2" rx="11" ry="11" style="stroke:#A80036;stroke-width:1.0;"/><path d="M773.5469,1733.2031 C775.0469,1733.2031 776.2813,1732.6406 777.1875,1731.5781 L775.8125,1730.0625 C775.2656,1730.6563 774.6094,1731.0469 773.8125,1731.0469 C772.1406,1731.0469 770.9844,1729.7188 770.9844,1727.4375 C770.9844,1725.2188 772.1406,1723.875 773.7031,1723.875 C774.5156,1723.875 775.1094,1724.1875 775.6406,1724.6719 L777.0156,1723.125 C776.2656,1722.3906 775.1094,1721.7188 773.7031,1721.7188 C770.75,1721.7188 768.4219,1723.8594 768.4219,1727.5313 C768.4219,1731.25 770.7969,1733.2031 773.5469,1733.2031 Z " fill="#000000"/><text fill="#000000" font-family="sans-serif" font-size="12" lengthAdjust="spacing" textLength="50" x="787.5" y="1731.1016">Ombrage</text><line style="stroke:#A80036;stroke-width:1.5;" x1="759.5" x2="839.5" y1="1743" y2="1743"/><line style="stroke:#A80036;stroke-width:1.5;" x1="759.5" x2="839.5" y1="1751" y2="1751"/><!--MD5=[d09ee6395bcb24682bf2a2c57ae7ea96]
class PlayerDeck--><rect codeLine="130" fill="#FEFECE" filter="url(#f1mo7x6lnxbvtx)" height="48" id="PlayerDeck" style="stroke:#A80036;stroke-width:1.5;" width="91" x="754" y="2316"/><ellipse cx="769" cy="2332" fill="#ADD1B2" rx="11" ry="11" style="stroke:#A80036;stroke-width:1.0;"/><path d="M769.0469,2338.2031 C770.5469,2338.2031 771.7813,2337.6406 772.6875,2336.5781 L771.3125,2335.0625 C770.7656,2335.6563 770.1094,2336.0469 769.3125,2336.0469 C767.6406,2336.0469 766.4844,2334.7188 766.4844,2332.4375 C766.4844,2330.2188 767.6406,2328.875 769.2031,2328.875 C770.0156,2328.875 770.6094,2329.1875 771.1406,2329.6719 L772.5156,2328.125 C771.7656,2327.3906 770.6094,2326.7188 769.2031,2326.7188 C766.25,2326.7188 763.9219,2328.8594 763.9219,2332.5313 C763.9219,2336.25 766.2969,2338.2031 769.0469,2338.2031 Z " fill="#000000"/><text fill="#000000" font-family="sans-serif" font-size="12" lengthAdjust="spacing" textLength="59" x="783" y="2336.1016">PlayerDeck</text><line style="stroke:#A80036;stroke-width:1.5;" x1="755" x2="844" y1="2348" y2="2348"/><line style="stroke:#A80036;stroke-width:1.5;" x1="755" x2="844" y1="2356" y2="2356"/><!--MD5=[b6dcce5e5ef3c84b0b048d11301373dd]
class Game--><rect codeLine="135" fill="#FEFECE" filter="url(#f1mo7x6lnxbvtx)" height="48" id="Game" style="stroke:#A80036;stroke-width:1.5;" width="64" x="767.5" y="1794"/><ellipse cx="782.5" cy="1810" fill="#ADD1B2" rx="11" ry="11" style="stroke:#A80036;stroke-width:1.0;"/><path d="M782.5469,1816.2031 C784.0469,1816.2031 785.2813,1815.6406 786.1875,1814.5781 L784.8125,1813.0625 C784.2656,1813.6563 783.6094,1814.0469 782.8125,1814.0469 C781.1406,1814.0469 779.9844,1812.7188 779.9844,1810.4375 C779.9844,1808.2188 781.1406,1806.875 782.7031,1806.875 C783.5156,1806.875 784.1094,1807.1875 784.6406,1807.6719 L786.0156,1806.125 C785.2656,1805.3906 784.1094,1804.7188 782.7031,1804.7188 C779.75,1804.7188 777.4219,1806.8594 777.4219,1810.5313 C777.4219,1814.25 779.7969,1816.2031 782.5469,1816.2031 Z " fill="#000000"/><text fill="#000000" font-family="sans-serif" font-size="12" lengthAdjust="spacing" textLength="32" x="796.5" y="1814.1016">Game</text><line style="stroke:#A80036;stroke-width:1.5;" x1="768.5" x2="830.5" y1="1826" y2="1826"/><line style="stroke:#A80036;stroke-width:1.5;" x1="768.5" x2="830.5" y1="1834" y2="1834"/><!--MD5=[d0074d293e9645ff4ed5f25f47c5773b]
class GameWindow--><rect codeLine="138" fill="#FEFECE" filter="url(#f1mo7x6lnxbvtx)" height="48" id="GameWindow" style="stroke:#A80036;stroke-width:1.5;" width="108" x="745.5" y="1628"/><ellipse cx="760.5" cy="1644" fill="#ADD1B2" rx="11" ry="11" style="stroke:#A80036;stroke-width:1.0;"/><path d="M760.5469,1650.2031 C762.0469,1650.2031 763.2813,1649.6406 764.1875,1648.5781 L762.8125,1647.0625 C762.2656,1647.6563 761.6094,1648.0469 760.8125,1648.0469 C759.1406,1648.0469 757.9844,1646.7188 757.9844,1644.4375 C757.9844,1642.2188 759.1406,1640.875 760.7031,1640.875 C761.5156,1640.875 762.1094,1641.1875 762.6406,1641.6719 L764.0156,1640.125 C763.2656,1639.3906 762.1094,1638.7188 760.7031,1638.7188 C757.75,1638.7188 755.4219,1640.8594 755.4219,1644.5313 C755.4219,1648.25 757.7969,1650.2031 760.5469,1650.2031 Z " fill="#000000"/><text fill="#000000" font-family="sans-serif" font-size="12" lengthAdjust="spacing" textLength="76" x="774.5" y="1648.1016">GameWindow</text><line style="stroke:#A80036;stroke-width:1.5;" x1="746.5" x2="852.5" y1="1660" y2="1660"/><line style="stroke:#A80036;stroke-width:1.5;" x1="746.5" x2="852.5" y1="1668" y2="1668"/><!--MD5=[a83d828be13d333e1fddb3d4d9d97191]
class Handler--><rect codeLine="143" fill="#FEFECE" filter="url(#f1mo7x6lnxbvtx)" height="48" id="Handler" style="stroke:#A80036;stroke-width:1.5;" width="74" x="762.5" y="2399"/><ellipse cx="777.5" cy="2415" fill="#ADD1B2" rx="11" ry="11" style="stroke:#A80036;stroke-width:1.0;"/><path d="M777.5469,2421.2031 C779.0469,2421.2031 780.2813,2420.6406 781.1875,2419.5781 L779.8125,2418.0625 C779.2656,2418.6563 778.6094,2419.0469 777.8125,2419.0469 C776.1406,2419.0469 774.9844,2417.7188 774.9844,2415.4375 C774.9844,2413.2188 776.1406,2411.875 777.7031,2411.875 C778.5156,2411.875 779.1094,2412.1875 779.6406,2412.6719 L781.0156,2411.125 C780.2656,2410.3906 779.1094,2409.7188 777.7031,2409.7188 C774.75,2409.7188 772.4219,2411.8594 772.4219,2415.5313 C772.4219,2419.25 774.7969,2421.2031 777.5469,2421.2031 Z " fill="#000000"/><text fill="#000000" font-family="sans-serif" font-size="12" lengthAdjust="spacing" textLength="42" x="791.5" y="2419.1016">Handler</text><line style="stroke:#A80036;stroke-width:1.5;" x1="763.5" x2="835.5" y1="2431" y2="2431"/><line style="stroke:#A80036;stroke-width:1.5;" x1="763.5" x2="835.5" y1="2439" y2="2439"/><!--MD5=[5b63724585581d1714c92cb3ec182af9]
class Slider--><rect codeLine="148" fill="#FEFECE" filter="url(#f1mo7x6lnxbvtx)" height="48" id="Slider" style="stroke:#A80036;stroke-width:1.5;" width="62" x="768.5" y="2482"/><ellipse cx="783.5" cy="2498" fill="#ADD1B2" rx="11" ry="11" style="stroke:#A80036;stroke-width:1.0;"/><path d="M783.5469,2504.2031 C785.0469,2504.2031 786.2813,2503.6406 787.1875,2502.5781 L785.8125,2501.0625 C785.2656,2501.6563 784.6094,2502.0469 783.8125,2502.0469 C782.1406,2502.0469 780.9844,2500.7188 780.9844,2498.4375 C780.9844,2496.2188 782.1406,2494.875 783.7031,2494.875 C784.5156,2494.875 785.1094,2495.1875 785.6406,2495.6719 L787.0156,2494.125 C786.2656,2493.3906 785.1094,2492.7188 783.7031,2492.7188 C780.75,2492.7188 778.4219,2494.8594 778.4219,2498.5313 C778.4219,2502.25 780.7969,2504.2031 783.5469,2504.2031 Z " fill="#000000"/><text fill="#000000" font-family="sans-serif" font-size="12" lengthAdjust="spacing" textLength="30" x="797.5" y="2502.1016">Slider</text><line style="stroke:#A80036;stroke-width:1.5;" x1="769.5" x2="829.5" y1="2514" y2="2514"/><line style="stroke:#A80036;stroke-width:1.5;" x1="769.5" x2="829.5" y1="2522" y2="2522"/><!--MD5=[9c5845fb6202fb0134e404c4c54d4261]
class Memo--><rect codeLine="153" fill="#FEFECE" filter="url(#f1mo7x6lnxbvtx)" height="48" id="Memo" style="stroke:#A80036;stroke-width:1.5;" width="66" x="208.5" y="295"/><ellipse cx="223.5" cy="311" fill="#ADD1B2" rx="11" ry="11" style="stroke:#A80036;stroke-width:1.0;"/><path d="M223.5469,317.2031 C225.0469,317.2031 226.2813,316.6406 227.1875,315.5781 L225.8125,314.0625 C225.2656,314.6563 224.6094,315.0469 223.8125,315.0469 C222.1406,315.0469 220.9844,313.7188 220.9844,311.4375 C220.9844,309.2188 222.1406,307.875 223.7031,307.875 C224.5156,307.875 225.1094,308.1875 225.6406,308.6719 L227.0156,307.125 C226.2656,306.3906 225.1094,305.7188 223.7031,305.7188 C220.75,305.7188 218.4219,307.8594 218.4219,311.5313 C218.4219,315.25 220.7969,317.2031 223.5469,317.2031 Z " fill="#000000"/><text fill="#000000" font-family="sans-serif" font-size="12" lengthAdjust="spacing" textLength="34" x="237.5" y="315.1016">Memo</text><line style="stroke:#A80036;stroke-width:1.5;" x1="209.5" x2="273.5" y1="327" y2="327"/><line style="stroke:#A80036;stroke-width:1.5;" x1="209.5" x2="273.5" y1="335" y2="335"/><!--MD5=[fb0932da17f9982e4848347a102654e2]
class Settings--><rect codeLine="155" fill="#FEFECE" filter="url(#f1mo7x6lnxbvtx)" height="48" id="Settings" style="stroke:#A80036;stroke-width:1.5;" width="77" x="1130.5" y="2277"/><ellipse cx="1145.5" cy="2293" fill="#ADD1B2" rx="11" ry="11" style="stroke:#A80036;stroke-width:1.0;"/><path d="M1145.5469,2299.2031 C1147.0469,2299.2031 1148.2813,2298.6406 1149.1875,2297.5781 L1147.8125,2296.0625 C1147.2656,2296.6563 1146.6094,2297.0469 1145.8125,2297.0469 C1144.1406,2297.0469 1142.9844,2295.7188 1142.9844,2293.4375 C1142.9844,2291.2188 1144.1406,2289.875 1145.7031,2289.875 C1146.5156,2289.875 1147.1094,2290.1875 1147.6406,2290.6719 L1149.0156,2289.125 C1148.2656,2288.3906 1147.1094,2287.7188 1145.7031,2287.7188 C1142.75,2287.7188 1140.4219,2289.8594 1140.4219,2293.5313 C1140.4219,2297.25 1142.7969,2299.2031 1145.5469,2299.2031 Z " fill="#000000"/><text fill="#000000" font-family="sans-serif" font-size="12" lengthAdjust="spacing" textLength="45" x="1159.5" y="2297.1016">Settings</text><line style="stroke:#A80036;stroke-width:1.5;" x1="1131.5" x2="1206.5" y1="2309" y2="2309"/><line style="stroke:#A80036;stroke-width:1.5;" x1="1131.5" x2="1206.5" y1="2317" y2="2317"/><!--MD5=[f78096ef350275f13dbcea525b25e071]
class TextInForeground--><rect codeLine="164" fill="#FEFECE" filter="url(#f1mo7x6lnxbvtx)" height="48" id="TextInForeground" style="stroke:#A80036;stroke-width:1.5;" width="129" x="735" y="2719"/><ellipse cx="750" cy="2735" fill="#ADD1B2" rx="11" ry="11" style="stroke:#A80036;stroke-width:1.0;"/><path d="M750.0469,2741.2031 C751.5469,2741.2031 752.7813,2740.6406 753.6875,2739.5781 L752.3125,2738.0625 C751.7656,2738.6563 751.1094,2739.0469 750.3125,2739.0469 C748.6406,2739.0469 747.4844,2737.7188 747.4844,2735.4375 C747.4844,2733.2188 748.6406,2731.875 750.2031,2731.875 C751.0156,2731.875 751.6094,2732.1875 752.1406,2732.6719 L753.5156,2731.125 C752.7656,2730.3906 751.6094,2729.7188 750.2031,2729.7188 C747.25,2729.7188 744.9219,2731.8594 744.9219,2735.5313 C744.9219,2739.25 747.2969,2741.2031 750.0469,2741.2031 Z " fill="#000000"/><text fill="#000000" font-family="sans-serif" font-size="12" lengthAdjust="spacing" textLength="97" x="764" y="2739.1016">TextInForeground</text><line style="stroke:#A80036;stroke-width:1.5;" x1="736" x2="863" y1="2751" y2="2751"/><line style="stroke:#A80036;stroke-width:1.5;" x1="736" x2="863" y1="2759" y2="2759"/><!--MD5=[d8d0dbb5f0cfe04d65c36a8bd2186455]
class ImageTreatment--><rect codeLine="169" fill="#FEFECE" filter="url(#f1mo7x6lnxbvtx)" height="73.7813" id="ImageTreatment" style="stroke:#A80036;stroke-width:1.5;" width="305" x="647" y="199"/><ellipse cx="749.25" cy="215" fill="#ADD1B2" rx="11" ry="11" style="stroke:#A80036;stroke-width:1.0;"/><path d="M749.2969,221.2031 C750.7969,221.2031 752.0313,220.6406 752.9375,219.5781 L751.5625,218.0625 C751.0156,218.6563 750.3594,219.0469 749.5625,219.0469 C747.8906,219.0469 746.7344,217.7188 746.7344,215.4375 C746.7344,213.2188 747.8906,211.875 749.4531,211.875 C750.2656,211.875 750.8594,212.1875 751.3906,212.6719 L752.7656,211.125 C752.0156,210.3906 750.8594,209.7188 749.4531,209.7188 C746.5,209.7188 744.1719,211.8594 744.1719,215.5313 C744.1719,219.25 746.5469,221.2031 749.2969,221.2031 Z " fill="#000000"/><text fill="#000000" font-family="sans-serif" font-size="12" lengthAdjust="spacing" textLength="92" x="769.75" y="219.1016">ImageTreatment</text><line style="stroke:#A80036;stroke-width:1.5;" x1="648" x2="951" y1="231" y2="231"/><line style="stroke:#A80036;stroke-width:1.0;" x1="648" x2="951" y1="239" y2="239"/><line style="stroke:#A80036;stroke-width:1.0;" x1="648" x2="951" y1="241" y2="241"/><text fill="#000000" font-family="sans-serif" font-size="11" lengthAdjust="spacing" text-decoration="underline" textLength="230" x="653" y="253.2051">Image round_corners(image: Image, r: int)</text><text fill="#000000" font-family="sans-serif" font-size="11" lengthAdjust="spacing" text-decoration="underline" textLength="293" x="653" y="266.0957">Image enluminure(image: Image, r: int, ow: int, oh: int)</text><!--MD5=[ea8debb6306c9e0f5b195e6faa3026dd]
reverse link QGraphicsObject to Card--><path codeLine="57" d="M457.4914,1370.0312 C458.0004,1370.6816 458.5034,1371.3378 459,1372 C495.63,1420.8387 439.4247,1876.2957 481,1921 C548.8349,1993.9403 677.5238,1982.4788 748.8012,1968.9851 " fill="none" id="QGraphicsObject-backto-Card" style="stroke:#A80036;stroke-width:1.0;"/><polygon fill="none" points="452.3109,1374.7392,443.9083,1355.2868,462.6077,1365.2536,452.3109,1374.7392" style="stroke:#A80036;stroke-width:1.0;"/><!--MD5=[09c6ff566e48d890f226cadb607f011e]
link QPointF to Card--><path codeLine="58" d="M279.1855,670.2014 C328.1614,662.5028 412.8556,657.9404 459,706 C503.5339,752.3824 521.8641,1807.2288 560,1859 C604.4972,1919.4069 692.8592,1942.7058 748.9203,1951.6048 " fill="none" id="QPointF-Card" style="stroke:#A80036;stroke-width:1.0;"/><text fill="#000000" font-family="sans-serif" font-size="13" lengthAdjust="spacing" textLength="7" x="287.0365" y="682.2274">1</text><!--MD5=[5f5df25f7c82929a2659938aaf989656]
link QPixmap to Card--><path codeLine="59" d="M282.0852,1004.1525 C332.1657,999.5022 415.9558,1000.5941 459,1051 C513.572,1114.9052 440.0582,1733.6123 481,1807 C535.2698,1904.278 673.6914,1939.0721 748.942,1951.046 " fill="none" id="QPixmap-Card" style="stroke:#A80036;stroke-width:1.0;"/><rect fill="none" height="6" style="stroke:#C82930;stroke-width:1.0;" width="6" x="484" y="1796.1172"/><text fill="#000000" font-family="sans-serif" font-size="13" lengthAdjust="spacing" textLength="43" x="494" y="1803.0605">pixmap</text><text fill="#000000" font-family="sans-serif" font-size="13" lengthAdjust="spacing" textLength="7" x="289.9379" y="1016.5283">1</text><!--MD5=[07dabbf7cf794b38eccc33c2af52ad31]
reverse link QGraphicsObject to Stone--><path codeLine="64" d="M457.4944,1370.029 C458.0025,1370.6801 458.5044,1371.3371 459,1372 C498.6126,1424.9858 456.0257,1905.7388 481,1967 C500.7168,2015.3647 514.2543,2028.7961 560,2054 C627.2926,2091.0753 719.9545,2096.6623 767.9019,2096.7944 " fill="none" id="QGraphicsObject-backto-Stone" style="stroke:#A80036;stroke-width:1.0;"/><polygon fill="none" points="452.3096,1374.7322,443.9324,1355.2687,462.6187,1365.2599,452.3096,1374.7322" style="stroke:#A80036;stroke-width:1.0;"/><!--MD5=[5c8a412e273d9383e03869480c1f9b6d]
reverse link Side to UserSide--><path codeLine="83" d="M1051.1155,2584.3567 C1080.9694,2580.7209 1108.1307,2577.413 1128.8374,2574.8913 " fill="none" id="Side-backto-UserSide" style="stroke:#A80036;stroke-width:1.0;"/><polygon fill="none" points="1051.8488,2591.319,1031.1492,2586.7883,1050.1562,2577.4217,1051.8488,2591.319" style="stroke:#A80036;stroke-width:1.0;"/><!--MD5=[422bca25b186d040d293cc4e07d20d13]
reverse link Side to AutoSide--><path codeLine="84" d="M1050.9936,2649.7122 C1065.2945,2651.6861 1078.979,2653.5749 1091.6339,2655.3216 " fill="none" id="Side-backto-AutoSide" style="stroke:#A80036;stroke-width:1.0;"/><polygon fill="none" points="1050.0042,2656.6421,1031.1492,2646.9732,1051.9185,2642.7736,1050.0042,2656.6421" style="stroke:#A80036;stroke-width:1.0;"/><!--MD5=[a464f720acc2582b1f24ce33449db978]
reverse link Card to AutoSide--><path codeLine="85" d="M869.9212,1967.1072 C922.9969,1978.6508 992.9301,2003.0329 1031,2054 C1180.0318,2253.5202 966.1442,2396.1068 1092,2611 C1095.8191,2617.5209 1100.7518,2623.4741 1106.2746,2628.8532 " fill="none" id="Card-backto-AutoSide" style="stroke:#A80036;stroke-width:1.0;"/><polygon fill="none" points="868.4224,1973.9466,850.1485,1963.2198,871.1232,1960.2096,868.4224,1973.9466" style="stroke:#A80036;stroke-width:1.0;"/><!--MD5=[db800a21bb409fc8ad38bd1dbeec6d08]
reverse link Style to AutoSide--><path codeLine="86" d="M892.1783,3060.4428 C938.3633,3033.2243 992.4315,2995.6095 1031,2951 C1096.9773,2874.6888 1139.274,2761.3445 1157.9395,2703.266 " fill="none" id="Style-backto-AutoSide" style="stroke:#A80036;stroke-width:1.0;"/><polygon fill="none" points="895.4158,3066.6557,874.5854,3070.5412,888.4462,3054.5137,895.4158,3066.6557" style="stroke:#A80036;stroke-width:1.0;"/><!--MD5=[f5200ac652c19078e5b9291bb966dbb6]
reverse link Statistics to AutoSide--><path codeLine="87" d="M862.1181,3313.4041 C914.0683,3315.0718 986.4058,3308.3853 1031,3266 C1113.8009,3187.3005 1154.5388,2821.7272 1165.7302,2703.203 " fill="none" id="Statistics-backto-AutoSide" style="stroke:#A80036;stroke-width:1.0;"/><polygon fill="none" points="861.5242,3320.3822,841.9322,3312.3105,862.2816,3306.4027,861.5242,3320.3822" style="stroke:#A80036;stroke-width:1.0;"/><!--MD5=[8ec44642ebab6f35cdf576c8a1b4ab56]
reverse link QGraphicsItem to Side--><path codeLine="88" d="M316.6593,1406.3122 C365.0012,1405.9178 424.9407,1414.8253 459,1455 C495.0423,1497.5137 460.6407,2406.1159 481,2458 C500.479,2507.6406 543.1576,2541.6598 591.1341,2564.9466 " fill="none" id="QGraphicsItem-backto-Side" style="stroke:#A80036;stroke-width:1.0;"/><polygon fill="none" points="316.6498,1413.3166,296.4215,1407.0069,316.1695,1399.3248,316.6498,1413.3166" style="stroke:#A80036;stroke-width:1.0;"/><!--MD5=[9ac55728211b063eab053db0c5001bd7]
reverse link QGraphicsObject to Curtain--><path codeLine="99" d="M457.4987,1370.0257 C458.0054,1370.6779 458.5058,1371.336 459,1372 C503.865,1432.2892 453.1781,1978.1888 481,2048 C500.0277,2095.7447 539.5439,2130.3449 584.4709,2155.3228 " fill="none" id="QGraphicsObject-backto-Curtain" style="stroke:#A80036;stroke-width:1.0;"/><polygon fill="none" points="452.3077,1374.722,443.9669,1355.243,462.6345,1365.2691,452.3077,1374.722" style="stroke:#A80036;stroke-width:1.0;"/><!--MD5=[b6a9908b3f9b8948ff21ac6ae8331e53]
reverse link Curtain to Chifoumi--><path codeLine="104" d="M1050.8882,2161.5312 C1080.4098,2154.8998 1107.3101,2148.8573 1127.9564,2144.2195 " fill="none" id="Curtain-backto-Chifoumi" style="stroke:#A80036;stroke-width:1.0;"/><polygon fill="none" points="1052.1971,2168.4115,1031.1492,2165.9651,1049.1287,2154.7519,1052.1971,2168.4115" style="stroke:#A80036;stroke-width:1.0;"/><!--MD5=[7c373ed3ab3ef032b8a7759c771c01d1]
reverse link Curtain to Home--><path codeLine="109" d="M1051.4151,2218 C1085.2236,2218 1115.5584,2218 1136.9461,2218 " fill="none" id="Curtain-backto-Home" style="stroke:#A80036;stroke-width:1.0;"/><polygon fill="none" points="1051.1492,2224.9999,1031.1492,2218,1051.1491,2210.9999,1051.1492,2224.9999" style="stroke:#A80036;stroke-width:1.0;"/><!--MD5=[b359f16b7203581e8615b8e416c46e11]
reverse link QGraphicsPixmapItem to Clickable--><path codeLine="114" d="M244.0562,1624.5274 C256.2159,1820.3358 314.6843,2602.5081 481,2769 C555.437,2843.5159 691.6922,2839.4548 759.2804,2831.9463 " fill="none" id="QGraphicsPixmapItem-backto-Clickable" style="stroke:#A80036;stroke-width:1.0;"/><polygon fill="none" points="237.0552,1624.72,242.8394,1604.3351,251.0298,1623.8779,237.0552,1624.72" style="stroke:#A80036;stroke-width:1.0;"/><!--MD5=[8290b10ee2e47dc7fa8c08d0dbbddf4c]
reverse link QGraphicsPixmapItem to Deck--><path codeLine="119" d="M245.5438,1624.4789 C264.0976,1821.1006 346.002,2611.4953 481,2815 C544.8999,2911.3269 704.0768,2914.427 770.0915,2911.2437 " fill="none" id="QGraphicsPixmapItem-backto-Deck" style="stroke:#A80036;stroke-width:1.0;"/><polygon fill="none" points="238.5641,1625.0216,243.6815,1604.4592,252.504,1623.7248,238.5641,1625.0216" style="stroke:#A80036;stroke-width:1.0;"/><!--MD5=[b2f0b2bc52ef69a240c0fb475db9b7d0]
reverse link QGraphicsDropShadowEffect to Ombrage--><path codeLine="128" d="M356.336,838.4 C394.5701,842.8332 433.7915,855.4397 459,885 C516.1952,952.069 423.8491,1610.8932 481,1678 C549.3814,1758.2937 688.7738,1751.4716 758.238,1742.1271 " fill="none" id="QGraphicsDropShadowEffect-backto-Ombrage" style="stroke:#A80036;stroke-width:1.0;"/><polygon fill="none" points="355.5762,845.3614,336.2085,836.7653,356.7095,831.4073,355.5762,845.3614" style="stroke:#A80036;stroke-width:1.0;"/><!--MD5=[9529d51b6a3c3fb096b9f849503cd0b0]
reverse link QGraphicsItem to PlayerDeck--><path codeLine="133" d="M316.5217,1406.4295 C364.8038,1406.086 424.7282,1415.0064 459,1455 C483.4503,1483.5324 472.1706,2094.4766 481,2131 C500.2936,2210.8091 494.6982,2248.2265 560,2298 C616.236,2340.8635 701.4129,2345.6165 753.584,2343.7801 " fill="none" id="QGraphicsItem-backto-PlayerDeck" style="stroke:#A80036;stroke-width:1.0;"/><polygon fill="none" points="316.5334,1413.4329,296.3123,1407.0999,316.0691,1399.4406,316.5334,1413.4329" style="stroke:#A80036;stroke-width:1.0;"/><!--MD5=[b2d7c3f8aa221dbcb0373d925e618b37]
reverse link QGraphicsView to Game--><path codeLine="136" d="M304.3749,915.4812 C354.0376,910.378 421.0854,913.1102 459,955 C487.7924,986.8112 459.6043,1689.809 481,1727 C537.9954,1826.0721 698.4667,1826.1614 767.3895,1821.2466 " fill="none" id="QGraphicsView-backto-Game" style="stroke:#A80036;stroke-width:1.0;"/><polygon fill="#A80036" points="299.3216,916.0335,308.7029,919.0319,304.292,915.4902,307.8337,911.0793,299.3216,916.0335" style="stroke:#A80036;stroke-width:1.0;"/><!--MD5=[2c992ae5eb13f7e412373d83650d6a26]
reverse link QMainWindow to GameWindow--><path codeLine="141" d="M317.7702,757.8769 C363.377,759.9242 419.874,769.8359 459,802 C735.6104,1029.3917 789.0643,1514.692 797.9148,1627.997 " fill="none" id="QMainWindow-backto-GameWindow" style="stroke:#A80036;stroke-width:1.0;"/><polygon fill="none" points="317.5259,764.8733,297.6836,757.438,317.8318,750.8767,317.5259,764.8733" style="stroke:#A80036;stroke-width:1.0;"/><!--MD5=[034ed528ff1c0ee64fa951844b0ddda4]
reverse link QGraphicsItem to Handler--><path codeLine="146" d="M316.6003,1406.3623 C364.9166,1405.9897 424.8497,1414.9027 459,1455 C488.9447,1490.1592 464.7273,2242.779 481,2286 C500.349,2337.3918 512.4915,2353.4601 560,2381 C624.0957,2418.1552 712.8691,2424.1061 762.3614,2424.1747 " fill="none" id="QGraphicsItem-backto-Handler" style="stroke:#A80036;stroke-width:1.0;"/><polygon fill="none" points="316.6,1413.3663,296.3747,1407.0466,316.1265,1399.3743,316.6,1413.3663" style="stroke:#A80036;stroke-width:1.0;"/><!--MD5=[9631a2f68cdc19b796f6d1e7d67775b7]
reverse link QGraphicsItem to Slider--><path codeLine="151" d="M316.6336,1406.3341 C364.9643,1405.9491 424.901,1414.859 459,1455 C492.0998,1493.9647 462.2775,2327.4257 481,2375 C500.3688,2424.2167 513.8199,2438.2157 560,2464 C627.2664,2501.5577 720.3427,2506.9113 768.2439,2506.8895 " fill="none" id="QGraphicsItem-backto-Slider" style="stroke:#A80036;stroke-width:1.0;"/><polygon fill="none" points="316.6281,1413.3382,296.4011,1407.0242,316.1508,1399.3464,316.6281,1413.3382" style="stroke:#A80036;stroke-width:1.0;"/><!--MD5=[a97f7c5af74dc5ff691e8d1de02a4e67]
reverse link Curtain to Settings--><path codeLine="158" d="M1051.0595,2274.5073 C1081.6381,2281.3761 1109.3948,2287.611 1130.2885,2292.3043 " fill="none" id="Curtain-backto-Settings" style="stroke:#A80036;stroke-width:1.0;"/><polygon fill="none" points="1049.1287,2281.2481,1031.1492,2270.0349,1052.1971,2267.5885,1049.1287,2281.2481" style="stroke:#A80036;stroke-width:1.0;"/><!--MD5=[1778b9b59b6aaae0757336a5fc95c58d]
reverse link QGraphicsSimpleTextItem to TextInForeground--><path codeLine="167" d="M348.5821,1490.5229 C389.2315,1494.0948 432.1543,1506.3355 459,1538 C494.9714,1580.4282 468.7557,2484.7398 481,2539 C499.8736,2622.6379 490.8523,2664.3038 560,2715 C610.1357,2751.7574 682.6956,2755.2922 734.794,2751.7793 " fill="none" id="QGraphicsSimpleTextItem-backto-TextInForeground" style="stroke:#A80036;stroke-width:1.0;"/><polygon fill="none" points="348.1573,1497.5102,328.5767,1489.4107,348.9345,1483.5318,348.1573,1497.5102" style="stroke:#A80036;stroke-width:1.0;"/><!--MD5=[f33f389a74ac3c90f016f62371fe34aa]
link MovingCard to Memo--><!--MD5=[f6056d093dfa4f87a76fdab0dd8d2ff6]
link MovingCard to ImageTreatment--><!--MD5=[e04a399c4e577e5867e92c99f02188bb]
link QLineF to QPropertyAnimation--><!--MD5=[02bdb322a1e9ed434b7856c39a8a1a67]
link QPropertyAnimation to QRectF--><!--MD5=[bbb218a4dd233c70d32bcb6d4d06d9cd]
link QLineF to QRect--><!--MD5=[82c05b848404d00dc9502a1686578d25]
link QRect to Qt--><!--MD5=[9880da05d203378bbec17d45d2867b05]
link Image to ImageDraw--><!--MD5=[ef0d93282f00dd2f208086ff48bbb695]
link Image to ImageQt--><!--MD5=[98521be1ef08950bbd56ff4404696065]
@startuml Schotten Totten

left to right direction

package "PyQt5" {

    package "QtGui" {
        class QColor
        class QPixmap
    }
    package "QtCore" {
        class QPointF
        class QLineF
        class QPropertyAnimation
        class QRectF
        class QRect
        class Qt
    }

    class QMainWindow

    package "QtWidgets" {
        class QApplication
        abstract class QGraphicsObject {
            + __init__(parent)
            + setVisible(boolean)
            + setPos(int,int)
            + {abstract} QRectF boundingRect()
            + {abstract} void paint(painter: QPainter, option: QStyleOptionGraphicsItem, [widget: QWidget])
        }
        abstract class QGraphicsItem
        class QGraphicsSimpleTextItem
        class QGraphicsPixmapItem
    }
    class QGraphicsDropShadowEffect
    class QGraphicsView

}

package "PIL" {
    class Image
    class ImageDraw
    class ImageQt
}

class Card {
    - {static} int total_cards
    + List cards
    + {static} width
    + {static} height
    -
    numero
    index
    ==

    - -
}
QGraphicsObject <|- - Card
QPointF "1" - Card
QPixmap "1" - Card : - pixmap 

class Stone {

}
QGraphicsObject <|- - Stone

together {
    class Side {
        + __init__(numero: int, color0: Color, color1: Color, pen: Pen, parent)
        + QRectF boundingRect()
        + void paint(painter: QPainter, option: QStyleOptionGraphicsItem, [widget: QWidget])
        + addCardToSide(i,pos)
    }

    class UserSide {

    }

    class AutoSide {
        + __init__(numero, parent)
        + addCard(i)
    }
}
Side <|- - UserSide
Side <|- - AutoSide
Card <|- - AutoSide
Style <|- - AutoSide
Statistics <|- - AutoSide
QGraphicsItem <|- - Side

class Curtain {
    ==
    + __init__(parent)
    + QrectF boundingRect()
    + void paint(painter: QPainter, option: QStyleOptionGraphicsItem, [widget: QWidget])
    + void animate_incoming()
    + animate_leaving()
    + remove()
}
QGraphicsObject <|- - Curtain

class Chifoumi {

}
Curtain <|- - Chifoumi

class Home {

}
Curtain <|- - Home

class Clickable {

}
QGraphicsPixmapItem <|- - Clickable

class Deck {

}
QGraphicsPixmapItem <|- - Deck

class MovingCard {

}

class Ombrage {

}
QGraphicsDropShadowEffect <|- - Ombrage

class PlayerDeck {

}
QGraphicsItem <|- - PlayerDeck

class Game {}
QGraphicsView <- - Game

class GameWindow {

}
QMainWindow <|- - GameWindow

class Handler {

}
QGraphicsItem <|- - Handler

class Slider {

}
QGraphicsItem <|- - Slider

class Memo

class Settings {

}
Curtain <|- - Settings

class Statistics {

}

class TextInForeground {

}
QGraphicsSimpleTextItem <|- - TextInForeground

class ImageTreatment {
    ==
    {static} Image round_corners(image: Image, r: int)
    {static} Image enluminure(image: Image, r: int, ow: int, oh: int)
}

class Style {
    {static} Color cadre_color
    {static} Color relief_color
    {static} Color relief_color2
    {static} QColor ombrage_color
    {static} QColor ombrage_color_bt
    {static} QColor background_color

    {static} QColor user_side_color0
    {static} QColor user_side_color1
    {static} QColor user_side_pen
    {static} QColor user_hand_color
    {static} QColor user_hand_pen

    {static} QColor auto_side_color0
    {static} QColor auto_side_color1
    {static} QColor auto_side_pen
    {static} QColor auto_hand_color
    {static} QColor auto_hand_pen
}

@enduml

PlantUML version 1.2022.0(Tue Jan 11 17:16:42 CET 2022)
(GPL source distribution)
Java Runtime: OpenJDK Runtime Environment
JVM: OpenJDK 64-Bit Server VM
Default Encoding: ANSI_X3.4-1968
Language: en
Country: US
--></g></svg>